<?xml version="1.0" encoding="UTF-8"?>
<!DOCTYPE svg  PUBLIC '-//W3C//DTD SVG 1.1//EN'  'http://www.w3.org/Graphics/SVG/1.1/DTD/svg11.dtd'>
<svg clip-rule="evenodd" fill-rule="evenodd" stroke-linecap="round" stroke-linejoin="round" stroke-miterlimit="1.5" version="1.1" viewBox="0 0 1920 1080" xml:space="preserve" xmlns="http://www.w3.org/2000/svg" xmlns:serif="http://www.serif.com/"><path d="m828.46 658.7c-9.654 0.163 4.254 39.763 0 55.963-4.106 15.635-28.8 30.436-25.527 41.236 3.273 10.799 31.254 30.599 45.163 23.563s41.563-45.654 38.291-65.781c-3.273-20.127-48.273-55.145-57.927-54.981z" fill="#d5cca7"/><path d="m1103.2 658.7c9.654 0.163-4.255 39.763-0 55.963 4.106 15.635 28.799 30.436 25.527 41.236-3.273 10.799-31.254 30.599-45.163 23.563s-41.563-45.654-38.291-65.781c3.273-20.127 48.272-55.145 57.927-54.981z" fill="#d5cca7"/><path d="m906.22 747.65-47.462 35.163 10.257-7.599-72.147-29.318-130.3 234.53c-4.574 33.909 8.651 52.473 48.861 47.775h498.38c29.108-0.859 45.502-12.772 39.089-44.518l-117.27-237.79-68.405 26.06 1.085 14.115-54.289-42.346-107.81 3.925z" fill="#3d3d3d"/><ellipse cx="969.83" cy="617.04" rx="143.15" ry="141.6" fill="#d5cca7"/><path d="m985.8 736.66c-0-13.483-10.947-24.43-24.431-24.43-13.483-0-24.43 10.947-24.43 24.43v40.175c-0 13.483 10.947 24.43 24.43 24.43 13.484 0 24.431-10.947 24.431-24.43v-40.175z" fill="#d5cca7"/><path d="m860.34 808.62-15.954-7.603-95.523 200.45 15.954 7.603 95.523-200.45z" fill="#333"/><path d="m1065.3 808.62 15.954-7.603 95.523 200.45-15.954 7.603-95.523-200.45z" fill="#333"/><path d="m841.9 665.11s29.533 45.87 43.985 57.809" fill="none" stroke="#bfb178" stroke-width="4.2px"/><path d="m538.69 320.46c24.288 8.096 263.58 144.25 263.58 167" fill="none"/><path d="m1095.1 665.11s-29.533 45.87-43.985 57.809" fill="none" stroke="#bfb178" stroke-width="4.2px"/><path d="m570.09 319.9c95.363 35.691 164.31 76.93 223.64 162.24 2.521 3.625 7.511 4.521 11.135 2 3.625-2.521 4.521-7.511 2-11.136-61.378-88.247-132.52-131.16-231.17-168.08-4.136-1.547-8.749 0.553-10.297 4.689-1.548 4.135 0.553 8.749 4.688 10.296z" fill="#020232"/><path d="m1031.3 427.21c21.907-79.456 76.239-138.09 153.92-161.87 4.222-1.293 6.6-5.77 5.308-9.992-1.293-4.222-5.77-6.6-9.991-5.308-83.04 25.421-141.24 87.981-164.66 172.92-1.174 4.256 1.329 8.665 5.586 9.838 4.256 1.174 8.665-1.329 9.838-5.585z" fill="#020232"/><path d="m1190.6 569.91c96.271-0 181.47-25.47 263.23-75.78 3.76-2.314 4.935-7.245 2.621-11.006-2.314-3.76-7.246-4.934-11.006-2.621-79.159 48.709-161.63 73.407-254.84 73.407-4.415-0-8 3.584-8 8 0 4.415 3.585 8 8 8z" fill="#020232"/><path d="m698.08 580.45c-115.59-37.286-229.79-49.637-343.36-0.486-4.052 1.754-5.918 6.468-4.165 10.52 1.754 4.052 6.468 5.918 10.52 4.164 109.85-47.539 220.3-35.034 332.09 1.03 4.202 1.355 8.714-0.956 10.07-5.158 1.355-4.202-0.956-8.714-5.158-10.07z" fill="#020232"/><path d="m416.9 139.29c25.192-46.196 75.578-46.196 100.77-24.809 25.194 21.388 25.194 64.162-0 106.94-17.635 32.081-62.982 64.161-100.77 85.548-37.789-21.387-83.136-53.467-100.77-85.548-25.193-42.774-25.193-85.548-0-106.94 25.193-21.387 75.578-21.387 100.77 24.809z" fill="#d80c0c"/><rect x="1229.3" y="112.1" width="327.47" height="164.3" fill="#f2f2f2"/><path d="m1564.5 112.1c-0-4.264-3.456-7.72-7.72-7.72h-327.47c-4.263-0-7.72 3.456-7.72 7.72v164.3c0 4.263 3.457 7.72 7.72 7.72h327.47c4.264-0 7.72-3.457 7.72-7.72v-164.3zm-7.72-0h-327.47v164.3h327.47v-164.3z" fill="#595959"/><rect x="1253.7" y="132.8" width="161.28" height="87.968" fill="#404040"/><clipPath id="b"><rect x="1253.7" y="132.8" width="161.28" height="87.968"/></clipPath><g clip-path="url(#b)"><rect x="1300.6" y="154.88" width="67.259" height="92.241" fill="#f2f2f2"/><g fill="none" stroke="#000" stroke-width="2.44px" serif:id="^TExt"><path d="m1307 171.86h44.839"/><path d="m1307 177.62h44.839"/><path d="m1307 184.35h44.839"/><path d="m1307 191.07h44.839"/><path d="m1307 197.8h44.839"/><path d="m1307 204.52h44.839"/><path d="m1307 211.25h44.839"/><path d="m1307 217.98h44.839"/></g></g><path d="m1417.4 132.8c0-1.348-1.092-2.44-2.44-2.44h-161.28c-1.347-0-2.44 1.092-2.44 2.44v87.968c0 1.347 1.093 2.44 2.44 2.44h161.28c1.348-0 2.44-1.093 2.44-2.44v-87.968zm-2.44-0h-161.28v87.968h161.28v-87.968z" fill="#400000"/><rect x="1253.7" y="132.8" width="161.28" height="13.44" fill="#ff7aae"/><path d="m1417.4 132.8c0-1.348-1.092-2.44-2.44-2.44h-161.28c-1.347-0-2.44 1.092-2.44 2.44v13.439c0 1.348 1.093 2.44 2.44 2.44h161.28c1.348 0 2.44-1.092 2.44-2.44v-13.439zm-2.44-0h-161.28v13.439h161.28v-13.439z" fill="#400000"/><path d="m1306.6 162.57h27.544" fill="none" stroke="#000" stroke-width="2.44px"/><rect x="1374.5" y="281.06" width="32.513" height="13.276" fill="#595959"/><rect x="1336.6" y="289.12" width="108.27" height="13.276" fill="#595959"/><circle cx="196.93" cy="615.68" r="100.1" fill="#fff"/><clipPath id="a"><circle cx="196.93" cy="615.68" r="100.1"/></clipPath><g clip-path="url(#a)"><path d="m138.88 565.64 30.196 3.703 5.81 29.862-26.605 14.753-22.253-20.744 12.852-27.574z"/><path d="m139.4 561.47c-1.806-0.221-3.549 0.746-4.318 2.395l-12.852 27.573c-0.769 1.65-0.388 3.606 0.943 4.847l22.253 20.744c1.331 1.241 3.309 1.483 4.9 0.601l26.606-14.753c1.591-0.883 2.433-2.689 2.085-4.475l-5.809-29.862c-0.348-1.787-1.806-3.146-3.612-3.367l-30.196-3.703zm-0.511 4.169 30.196 3.703 5.81 29.862-26.605 14.753-22.253-20.744 12.852-27.574z" fill="#020200"/><path d="m138.88 565.64 30.196 3.703 5.81 29.862-26.605 14.753-22.253-20.744 12.852-27.574z"/><path d="m139.4 561.47c-1.806-0.221-3.549 0.746-4.318 2.395l-12.852 27.573c-0.769 1.65-0.388 3.606 0.943 4.847l22.253 20.744c1.331 1.241 3.309 1.483 4.9 0.601l26.606-14.753c1.591-0.883 2.433-2.689 2.085-4.475l-5.809-29.862c-0.348-1.787-1.806-3.146-3.612-3.367l-30.196-3.703zm-0.511 4.169 30.196 3.703 5.81 29.862-26.605 14.753-22.253-20.744 12.852-27.574z" fill="#020200"/><path d="m262.84 517.5 30.196 3.703 5.81 29.862-26.606 14.753-22.252-20.744 12.852-27.574z"/><path d="m263.35 513.34c-1.806-0.222-3.549 0.745-4.318 2.394l-12.852 27.574c-0.769 1.649-0.388 3.606 0.943 4.846l22.253 20.744c1.331 1.241 3.309 1.484 4.9 0.601l26.605-14.753c1.592-0.882 2.434-2.689 2.086-4.475l-5.809-29.862c-0.348-1.786-1.806-3.145-3.612-3.367l-30.196-3.702zm-0.511 4.168 30.196 3.703 5.81 29.862-26.606 14.753-22.252-20.744 12.852-27.574z" fill="#020200"/><path d="m248.99 643.8 30.422 0.027 9.375 28.941-24.627 17.86-24.596-17.904 9.426-28.924z"/><path d="m248.99 639.6c-1.82-2e-3 -3.433 1.168-3.997 2.898l-9.427 28.925c-0.564 1.73 0.051 3.626 1.522 4.697l24.596 17.904c1.471 1.07 3.464 1.072 4.937 4e-3l24.628-17.86c1.473-1.068 2.091-2.963 1.53-4.694l-9.375-28.942c-0.561-1.731-2.173-2.904-3.992-2.905l-30.422-0.027zm-4e-3 4.2 30.422 0.027 9.375 28.941-24.627 17.86-24.596-17.904 9.426-28.924z" fill="#020200"/><path d="m127.86 677.88 30.202-3.649 12.804 27.596-22.29 20.705-26.579-14.801 5.863-29.851z"/><path d="m127.36 673.71c-1.806 0.218-3.267 1.575-3.617 3.36l-5.863 29.852c-0.351 1.786 0.488 3.594 2.078 4.479l26.579 14.8c1.59 0.886 3.568 0.646 4.902-0.592l22.289-20.704c1.333-1.239 1.717-3.195 0.951-4.845l-12.803-27.597c-0.766-1.65-2.507-2.62-4.314-2.402l-30.202 3.649zm0.504 4.17 30.202-3.649 12.804 27.596-22.29 20.705-26.579-14.801 5.863-29.851z" fill="#020200"/><path d="m136.76 565.03c-1.244-11.114-3.233-21.137-8.063-31.306" fill="none" stroke="#020200" stroke-width="4.2px"/><path d="m170.32 566.86c11.343-7.965 23.292-15.057 36.568-19.293 13.107-4.182 29.418-5.28 43.199-4.262" fill="none" stroke="#020200" stroke-width="4.2px"/><path d="m272.68 568.22c-0.546 24.442 5.313 49.108 9.19 73.134" fill="none" stroke="#020200" stroke-width="4.2px"/><path d="m245.67 643.02c-5.362-4.754-9.674-10.626-15.206-15.148-14.801-12.098-34.711-22.578-53.476-26.812" fill="none" stroke="#020200" stroke-width="4.2px"/><path d="m159.46 671.97c0-18.578 0.507-38.714-9.189-55.408" fill="none" stroke="#020200" stroke-width="4.2px"/><path d="m125.43 676.29c-4.266-12.386-15.017-22.055-26.327-28.152" fill="none" stroke="#020200" stroke-width="4.2px"/><path d="m122.46 595c-9.133 0.178-17.675-0.135-26.184 3.612" fill="none" stroke="#020200" stroke-width="4.2px"/><path d="m174.04 702.22c7.919-2.728 16.225-4.574 23.933-7.874 12.84-5.497 24.731-12.592 36.829-19.491" fill="none" stroke="#020200" stroke-width="4.2px"/></g><path d="m196.93 511.38c-57.566 0-104.3 46.736-104.3 104.3s46.736 104.3 104.3 104.3 104.3-46.736 104.3-104.3-46.736-104.3-104.3-104.3zm0 4.2c55.248 0 100.1 44.854 100.1 100.1s-44.854 100.1-100.1 100.1-100.1-44.854-100.1-100.1 44.854-100.1 100.1-100.1z" fill="#020200"/><circle cx="1697.8" cy="489.05" r="110.37" fill="#fff"/><path d="m1697.8 369.2c-66.147 0-119.85 53.703-119.85 119.85 0 66.146 53.703 119.85 119.85 119.85 66.146 0 119.85-53.703 119.85-119.85 0-66.147-53.703-119.85-119.85-119.85zm-0 9.48c60.914 0 110.37 49.455 110.37 110.37 0 60.914-49.455 110.37-110.37 110.37-60.915 0-110.37-49.455-110.37-110.37 0-60.915 49.455-110.37 110.37-110.37z"/><rect x="1695" y="572.29" width="7.485" height="28.213"/><path d="m1786.5 486.74v7.485h28.213v-7.485h-28.213z"/><rect x="1695" y="374.46" width="7.485" height="28.213"/><path d="m1610.9 494.22v-7.485h-28.213v7.485h28.213z"/><path d="m1779.7 552.92 4.515-6.763-89.786-59.945-4.515 6.763 89.786 59.945z"/><path d="m1743.1 462.11-4.753-6.598-46.093 33.203 4.752 6.598 46.094-33.203z"/><circle cx="1695.1" cy="491.94" r="6.676"/><rect x="508.5" y="1011.9" width="903" height="80.886" fill="#5f450f"/><path d="m1014.5 718.54-43.878 4.04-45.251 3.913c23.249-51.029 57.494-74.04 89.129-7.953z" fill="#fff"/><path d="m905.77 597.03 22.046 13.09-22.046 13.778" fill="none" stroke="#b47700" stroke-width="4.2px"/><path d="m1045.4 594.45-22.046 13.089 22.046 13.779" fill="none" stroke="#b47700" stroke-width="4.2px"/></svg>
