<?xml version="1.0" encoding="UTF-8"?>
<!DOCTYPE svg  PUBLIC '-//W3C//DTD SVG 1.1//EN'  'http://www.w3.org/Graphics/SVG/1.1/DTD/svg11.dtd'>
<svg clip-rule="evenodd" fill-rule="evenodd" stroke-linecap="round" stroke-linejoin="round" stroke-miterlimit="1.5" version="1.1" viewBox="0 0 1920 1080" xml:space="preserve" xmlns="http://www.w3.org/2000/svg"><path d="m794.3 658.22-15.711 142.9 143.64 2.244-0.749-140.65-127.18-4.489z" fill="#ffb988"/><ellipse cx="869.48" cy="558.18" rx="112.77" ry="138.08" fill="#ffb988"/><clipPath id="c"><ellipse cx="869.48" cy="558.18" rx="112.77" ry="138.08"/></clipPath><g clip-path="url(#c)"><path d="m907.74 631.11-79.057-5.362s12.085-46.563 49.2-41.275c25.2 3.591 29.857 46.637 29.857 46.637z" fill="#fff"/><path d="m813.13 509.84 37.755 19.528-40.359 3.906" fill="none" stroke="#fff" stroke-width="9.13px"/><path d="m948.53 509.84-37.755 19.528 40.359 3.906" fill="none" stroke="#fff" stroke-width="9.13px"/></g><path d="m793.12 703.34c0.738 0.669-8.518 19.471-5.915 45.208 3.274 32.377 34.955 60.016 87.244 15.444 14.044-11.97 29.985-29.229 48.006-53.146 18.641-24.741-12.474 384.38-12.474 384.38l-146.08-0.263c-5.979-130.62-6.659-262.03 14.01-390.74l15.211-0.883z" fill="#5e33ff"/><path d="m778.19 703.94-7.394 142.85 164.02-135.11s93.638 2.2 150.82 111.55c57.188 109.35 11.312 272.43 11.312 272.43l-97.408 0.629 1.886-53.418-12.569 51.532-101.81-1.885 20.739-161.82-138.26 131.34-1.886 31.422-143.28 1.885 13.197-72.899-74.156-155.22c8.144-76.459 46.112-124.85 111.23-147.68l103.54-15.593z" fill="#121936"/><path d="m637.56 1022.4s41.586 75.292 131.97 39.592c26.223-10.358 281.86-277.28 281.86-277.28" fill="none" stroke="#12194a" stroke-width="9.13px"/><path d="m662.64 732.05 73.918 145.1 195.74-162.89" fill="none" stroke="#12194a" stroke-width="9.13px"/><path d="m913.79 729.65c2.966 24.411 87.937 73.082 117.57 72.367s63.195-52.244 60.229-76.655-48.391-70.526-78.024-69.811c-29.633 0.714-102.74 49.687-99.775 74.099z" fill="#ffb988"/><path d="m568.85 443.16c-42.48 16.431-91.483 25.806-143.64 25.806-162.23-0-293.94-90.694-293.94-202.4s131.71-202.4 293.94-202.4c162.23 0 293.94 90.694 293.94 202.4 0 58.413-84.812 143.63-84.812 143.63l61.581 95.017-127.07-62.047 2e-3 -1e-3z" fill="#fff"/><clipPath id="b"><path d="m568.85 443.16c-42.48 16.431-91.483 25.806-143.64 25.806-162.23-0-293.94-90.694-293.94-202.4s131.71-202.4 293.94-202.4c162.23 0 293.94 90.694 293.94 202.4 0 58.413-84.812 143.63-84.812 143.63l61.581 95.017-127.07-62.047 2e-3 -1e-3z"/></clipPath><g clip-path="url(#b)"><path d="m330.74 268.1c0-4.733-3.843-8.576-8.576-8.576-4.734-0-8.577 3.843-8.577 8.576v8.168c0 4.734 3.843 8.577 8.577 8.577 4.733-0 8.576-3.843 8.576-8.577v-8.168z" fill="#fe6a68"/><path d="m359.32 268.1c-0-4.733-3.843-8.576-8.577-8.576-4.733-0-8.576 3.843-8.576 8.576v8.168c-0 4.734 3.843 8.577 8.576 8.577 4.734-0 8.577-3.843 8.577-8.577v-8.168z" fill="#fe6a68"/><path d="m387.91 268.1c0-4.733-3.843-8.576-8.576-8.576-4.734-0-8.577 3.843-8.577 8.576v8.168c0 4.734 3.843 8.577 8.577 8.577 4.733-0 8.576-3.843 8.576-8.577v-8.168z" fill="#fe6a68"/><path d="m277.1 188.19c-1.156 12.8-0.974 32.639-1.634 47.376-0.646 14.43 21.165 27.411 36.757 31.855 18.469 5.264 56.179 4.357 74.058-0.272 13.915-3.602 33.961-13.144 33.217-27.499-0.673-12.974 1.29-36.393 1.361-52.276 0.084-18.551-34.414-45.193-52.548-46.559-13.737-1.035-32.209-2.541-45.742-0.817-16.992 2.166-43.872 30.507-45.469 48.192z" fill="#fe6a68"/><path d="m297.79 205.07 42.202 19.604s-16.439 22.974-35.668 12.252c-13.056-7.28-6.534-31.856-6.534-31.856z" fill="#fff"/><path d="m400.72 205.07-42.202 19.604s16.439 22.974 35.667 12.252c13.057-7.28 6.535-31.856 6.535-31.856z" fill="#fff"/><path d="m348.98 229.03-6.807 17.698 12.797 0.544-5.99-18.242z" fill="#fff"/><path d="m580.6 200.52-57.862 39.263 55.795 51.663-61.994 28.931 123.26-20.992-78.55-57.558 19.346-41.307" fill="#fe6a68"/><g fill="#fe6a68" stroke="#fe3f3c" stroke-width="9.13px"><path d="m423.39 297.11 5.011-22.221 8.214 1.807-3.573 21.359-9.652-0.945z"/><path d="m405.78 297.29h45.627l-5.04 20.055h-35.547l-5.04-20.055z"/><circle cx="429.47" cy="362.09" r="51.768"/></g></g><path d="m568.85 443.16c-42.48 16.431-91.483 25.806-143.64 25.806-162.23-0-293.94-90.694-293.94-202.4s131.71-202.4 293.94-202.4c162.23 0 293.94 90.694 293.94 202.4 0 58.413-84.812 143.63-84.812 143.63l61.581 95.017-127.07-62.047 2e-3 -1e-3z" fill="none" stroke="#000" stroke-width="9.13px"/><path d="m1296.2 443.16c42.48 16.431 91.483 25.806 143.64 25.806 162.23-0 293.94-90.694 293.94-202.4s-131.71-202.4-293.94-202.4c-162.23 0-293.94 90.694-293.94 202.4 0 58.413 84.813 143.63 84.813 143.63l-61.582 95.017 127.07-62.047-2e-3 -1e-3z" fill="#fff"/><clipPath id="a"><path d="m1296.2 443.16c42.48 16.431 91.483 25.806 143.64 25.806 162.23-0 293.94-90.694 293.94-202.4s-131.71-202.4-293.94-202.4c-162.23 0-293.94 90.694-293.94 202.4 0 58.413 84.813 143.63 84.813 143.63l-61.582 95.017 127.07-62.047-2e-3 -1e-3z"/></clipPath><g clip-path="url(#a)" fill="#fe6a68" font-family="'ArialMT', 'Arial', sans-serif"><text x="1232.99px" y="243.796px" font-size="138.24px">JA?</text><text x="1281.64px" y="388.601px" font-size="131.22px">NEIN?</text></g><path d="m1296.2 443.16c42.48 16.431 91.483 25.806 143.64 25.806 162.23-0 293.94-90.694 293.94-202.4s-131.71-202.4-293.94-202.4c-162.23 0-293.94 90.694-293.94 202.4 0 58.413 84.813 143.63 84.813 143.63l-61.582 95.017 127.07-62.047-2e-3 -1e-3z" fill="none" stroke="#000" stroke-width="9.13px"/></svg>
