<?xml version="1.0" encoding="UTF-8" standalone="no"?><!DOCTYPE svg PUBLIC "-//W3C//DTD SVG 1.1//EN" "http://www.w3.org/Graphics/SVG/1.1/DTD/svg11.dtd"><svg width="100%" height="100%" viewBox="0 0 1920 1080" version="1.1" xmlns="http://www.w3.org/2000/svg" xmlns:xlink="http://www.w3.org/1999/xlink" xml:space="preserve" xmlns:serif="http://www.serif.com/" style="fill-rule:evenodd;clip-rule:evenodd;stroke-linecap:round;stroke-linejoin:round;stroke-miterlimit:1.5;"><path d="M-74.601,193.328c120.559,-27.983 269.72,170.234 332.885,442.365c63.166,272.131 16.57,515.786 -103.989,543.769c-120.559,27.983 -269.72,-170.233 -332.885,-442.364c-63.166,-272.131 -16.57,-515.786 103.989,-543.77Z" style="fill:#1cafd1;"/><g id="Date"><path d="M729.076,521.649c8.19,5.571 8.741,19.061 1.229,30.105c-7.511,11.044 -20.26,15.487 -28.45,9.916c-8.191,-5.571 -8.742,-19.06 -1.23,-30.104c7.512,-11.044 20.26,-15.488 28.451,-9.917Z" style="fill:#ff9c34;"/><path d="M716.548,560.042c0,-2.404 -1.952,-4.356 -4.357,-4.356l-8.713,-0c-2.405,-0 -4.357,1.952 -4.357,4.356l0,13.615c0,2.405 1.952,4.357 4.357,4.357l8.713,-0c2.405,-0 4.357,-1.952 4.357,-4.357l0,-13.615Z" style="fill:#ff9c34;"/><path d="M709.372,571.33c6.919,3.839 20.461,3.837 22.865,12.122c2.903,10.007 -2.338,38.518 -5.446,47.924c-1.643,4.97 -8.646,11.088 -13.201,8.508c-5.128,-2.903 -17.567,-25.931 -17.567,-25.931c0,0 -9.86,-1.419 -13.662,1.115c-5.856,3.904 -15.847,18.31 -21.47,22.307c-3.364,2.391 -12.269,1.673 -12.269,1.673c0,-0 9.852,-9.62 10.596,-15.615c0.743,-5.995 -1.22,-15.249 -6.135,-20.354c-8.364,-8.691 -36.765,-25.634 -44.055,-31.787c-1.945,-1.642 9.916,-16.039 18.124,-19.239c10.131,-3.951 32.066,-5.856 42.661,-4.462c8.108,1.067 14.32,8.87 20.913,12.826c6.175,3.706 12.349,7.419 18.646,10.913Z" style="fill:#5f54a3;"/><path d="M609.028,571.292c-6.399,0.225 9.802,-15.677 18.124,-19.239c10.629,-4.55 43.794,-6.249 43.915,-5.046c-0,0 -2.556,10.97 -6.944,11.208c-12.967,0.704 -49.991,12.897 -55.095,13.077Z" style="fill:#ff9c34;"/><path d="M684.415,570.599c4.681,28.327 12.089,53.661 28.349,69.285c5.106,2.072 9.332,-0.291 12.53,-5.306c0,0 -8.232,-24.804 -13.437,-35.688c-5.614,-11.738 -20.552,-34.715 -20.552,-34.715l-6.89,6.424Z" style="fill:#ff9c34;"/><path d="M541.772,648.61l15.532,-1.26l14.062,11.334l-4.407,12.174l-35.275,29.102l-0,0.011l-5.591,5.662l-40.543,17.932c-0,0 -6.371,5.886 -10.396,7.017c-5.241,1.473 -21.051,1.819 -21.051,1.819c0,0 -6.324,1.213 -8.056,-0.52c-1.733,-1.732 -4.004,-6.93 -2.339,-9.875c1.689,-2.989 12.475,-8.057 12.475,-8.057c-0,0 15.203,-9.659 20.271,-11.175c3.304,-0.989 9.111,0.996 11.97,-0.934c5.332,-3.6 20.026,-20.668 20.026,-20.668l3.349,-5.427l29.973,-27.135Z" style="fill:#ff9c34;"/><g id="Hose"><path d="M619.433,579.288l11.963,7.999c11.457,5.994 23.398,17.23 28.301,22.299c8.218,8.497 -7.536,33.012 -12.123,31.018l-29.142,5.069l-42.154,22.485l-10.191,4.832c-0,0 -6.304,-7.882 -7.828,-11.142c-1.819,-3.889 -16.476,-12.924 -15.095,-14.004c2.807,-2.193 14.799,-7.071 14.799,-7.071l33.676,-28.593l29.469,-23.959l-1.675,-8.933Z" style="fill:#01b5ff;"/><path d="M554.041,581.025c1.801,6.617 23.058,43.955 23.058,43.955l49.763,-41.367l-76.748,-57.744c-0,0 -0.571,38.638 3.927,55.156Z" style="fill:#0095d7;"/><path d="M552.305,526.938c0.474,4.299 -1.236,15.115 -1.19,22.216c0.011,1.703 1.023,4.839 -1.293,5.132c-16.853,2.135 -47.184,-10.237 -33.15,-19.125l13.401,-16.446l11.573,0.305c-0,-0 10.175,3.518 10.659,7.918Z" style="fill:#01b5ff;"/></g><path d="M519.223,542.042c-9.655,9.36 -11.509,75.805 -12.289,85.681c-0.78,9.875 -5.198,18.452 -5.198,18.452l-22.35,12.994l-0.26,5.718l9.616,2.858l19.751,-4.158l15.334,-6.237l1.039,-7.017l-2.079,-3.639l12.735,-42.102l0.26,-10.395c-1.083,-1.141 13.872,-40.464 12.769,-41.39c-2.148,-1.802 -24.934,-15.023 -29.328,-10.765Z" style="fill:#ff9c34;"/><path d="M685.398,556.274c3.04,-0.841 6.636,2.554 8.025,7.575c1.389,5.022 0.048,9.781 -2.993,10.622c-3.04,0.841 -6.636,-2.553 -8.025,-7.575c-1.389,-5.021 -0.048,-9.781 2.993,-10.622Z" style="fill:#ff9c34;"/><path d="M677.186,551.666c0.17,3.15 -3.917,5.934 -9.119,6.215c-5.203,0.28 -9.564,-2.051 -9.734,-5.201c-0.169,-3.15 3.917,-5.935 9.119,-6.215c5.203,-0.28 9.564,2.05 9.734,5.201Z" style="fill:#ff9c34;"/><g id="Brille"><ellipse cx="709.175" cy="532.238" rx="5.753" ry="5.178" style="fill:#0d0d0d;"/><ellipse cx="721.544" cy="538.279" rx="5.753" ry="5.178" style="fill:#0d0d0d;"/><path d="M716.435,535.899c-0,-0 0.294,-2.01 -1.968,-1.848" style="fill:none;stroke:#0d0d0d;stroke-width:0.4px;"/><path d="M726.639,540.797l7.217,5.817" style="fill:none;stroke:#0d0d0d;stroke-width:0.4px;"/><path d="M704.382,530.051l-1.901,-0.552" style="fill:none;stroke:#0d0d0d;stroke-width:0.4px;"/></g></g><path d="M1170.33,677.635c123.401,-76.866 269.812,-65.06 326.749,26.347c56.937,91.406 2.977,228.022 -120.424,304.888c-123.401,76.866 -269.812,65.06 -326.749,-26.347c-56.937,-91.407 -2.976,-228.023 120.424,-304.888Z" style="fill:#2caa61;"/><path d="M1166.25,671.082c-127.468,79.398 -181.709,221.104 -122.896,315.523c58.813,94.419 209.916,108.216 337.384,28.818c127.467,-79.399 181.708,-221.104 122.895,-315.523c-58.813,-94.419 -209.916,-108.217 -337.383,-28.818Zm4.081,6.553c123.401,-76.866 269.812,-65.06 326.749,26.347c56.937,91.406 2.977,228.022 -120.424,304.888c-123.401,76.866 -269.812,65.06 -326.749,-26.347c-56.937,-91.407 -2.976,-228.023 120.424,-304.888Z" style="fill:#2caa61;"/><g id="Sonne"><g id="Sonnenstrahlen"><path d="M1862.67,240.055l14.643,104.755" style="fill:none;stroke:#fbe815;stroke-width:7.02px;"/><path d="M1783.82,231.044l-27.033,114.893" style="fill:none;stroke:#fbe815;stroke-width:7.02px;"/><path d="M1709.48,199.504l-77.722,111.514" style="fill:none;stroke:#fbe815;stroke-width:7.02px;"/><path d="M1657.66,148.816l-67.584,42.803" style="fill:none;stroke:#fbe815;stroke-width:7.02px;"/><path d="M1623.87,65.463l-150.937,54.067" style="fill:none;stroke:#fbe815;stroke-width:7.02px;"/><path d="M1609.23,-0.995l-130.662,-16.896" style="fill:none;stroke:#fbe815;stroke-width:7.02px;"/></g><circle cx="1840.73" cy="13.284" r="229.223" style="fill:#fdf384;"/><path d="M1784.97,-139.349c0,0 -100.25,11.018 -100.25,145.248c0,134.229 100.25,160.007 100.25,160.007" style="fill:none;stroke:#fbe815;stroke-width:7.02px;"/></g><g><g id="Baum"><g id="Stamm"><rect x="1336.06" y="316.729" width="115.946" height="503.055" style="fill:#a87b4f;"/><path d="M1378.02,447.511c-0,-5.02 -4.076,-9.096 -9.096,-9.096c-5.021,-0 -9.096,4.076 -9.096,9.096l-0,207.775c-0,5.02 4.075,9.096 9.096,9.096c5.02,-0 9.096,-4.076 9.096,-9.096l-0,-207.775Z" style="fill:#8e6843;"/></g><g id="Krone"><path d="M1614.37,244.992c-0,-54.695 -44.406,-99.1 -99.1,-99.1l-233.628,-0c-54.694,-0 -99.1,44.405 -99.1,99.1c0,54.695 44.406,99.1 99.1,99.1l233.628,-0c54.694,-0 99.1,-44.405 99.1,-99.1Z" style="fill:#8fc740;"/><path d="M1379.31,304.835c54.695,-0 99.1,-44.405 99.1,-99.1l0,-123.516c0,-54.695 -44.405,-99.1 -99.1,-99.1c-54.695,-0 -99.1,44.405 -99.1,99.1l0,123.516c0,54.695 44.405,99.1 99.1,99.1Z" style="fill:#8fc740;"/><path d="M1457.49,255.056c0,-9.248 -7.508,-16.756 -16.756,-16.756l-167.56,-0c-9.248,-0 -16.756,7.508 -16.756,16.756c-0,9.248 7.508,16.756 16.756,16.756l167.56,-0c9.248,-0 16.756,-7.508 16.756,-16.756Z" style="fill:#7bae33;"/><path d="M1428.77,76.484c-0,-7.926 -6.436,-14.362 -14.363,-14.362c-7.926,-0 -14.362,6.436 -14.362,14.362l0,4.788c0,7.927 6.436,14.362 14.362,14.362c7.927,0 14.363,-6.435 14.363,-14.362l-0,-4.788Z" style="fill:#7bae33;"/><circle cx="1549.41" cy="253.62" r="16.277" style="fill:#7bae33;"/></g></g></g><g id="Du"><path d="M1030.01,789.392c-0,-0 1.483,28.057 -1.003,41.86c-2.94,16.325 -16.638,56.088 -16.638,56.088c-0,0 -5.461,25.947 -6.05,33.377c-0.301,3.79 6.798,10.053 2.515,11.202c-6.706,1.799 -36.129,0.829 -42.75,-0.411c-2.924,-0.548 0.769,-5.389 3.025,-7.027c4.034,-2.927 17.143,-5.646 21.176,-10.54c4.034,-4.893 3.025,-18.821 3.025,-18.821l3.933,-104.146l32.767,-1.582Z" style="fill:#fea37e;"/><path d="M1032.84,789.396l3.388,43.812l14.146,62.169c0,-0 6.67,17.391 6.988,23.082c0.22,3.944 -6.522,8.538 -5.082,11.067c1.44,2.53 8.878,3.756 13.722,4.111c5.993,0.439 21.007,0.966 22.235,-1.476c1.228,-2.441 -12.219,-7.606 -14.866,-13.175c-2.647,-5.568 -1.016,-20.237 -1.016,-20.237l1.136,-35.078l0.963,-75.254l-41.614,0.979Z" style="fill:#fea37e;"/><path d="M1074.02,734.661c-0,-0 3.43,49.716 -0.61,60.036c-0.889,2.272 -41.889,-5.3 -41.889,-5.3l-7.1,-51.241l49.599,-3.495Z" style="fill:#c44f45;"/><path d="M1025.33,742.925l6.494,46.472c0,-0 -35.46,4.158 -35.883,1.859c-1.838,-9.975 4.067,-56.354 4.067,-56.354l25.322,8.023Z" style="fill:#c44f45;"/><path d="M1025.33,742.925l6.494,46.472" style="fill:none;stroke:#95372f;stroke-width:0.4px;"/><ellipse cx="1030.88" cy="584.446" rx="19.412" ry="20.259" style="fill:#fea37e;"/><path d="M1028.02,584.975c0,-2.938 2.385,-5.323 5.323,-5.323l10.644,0c2.937,0 5.322,2.385 5.322,5.323l0,39.996c0,2.937 -2.385,5.322 -5.322,5.322l-10.644,0c-2.938,0 -5.323,-2.385 -5.323,-5.322l0,-39.996Z" style="fill:#fea37e;"/><path d="M1052.13,617.952c8.678,2.425 24.361,7.077 25.649,10.001c5.506,12.494 14.722,41.33 13.594,62.875l-15.133,6.596l-2.565,42.555c0,0 -29.069,3.689 -41.552,3.192c-11.375,-0.452 -33.344,-6.17 -33.344,-6.17l2.565,-31.917l-9.49,-2.553c-1.411,-24.611 6.412,-60.252 12.055,-73.834c2.572,-6.19 21.802,-7.66 21.802,-7.66c-0,0 18.09,-5.412 26.419,-3.085Z" style="fill:#fea37e;"/><path d="M991.861,702.518l0.206,55.574c-0,-0 -3.094,4.073 -1.605,8.765c1.49,4.693 6.532,7.26 6.532,7.26c0,0 8.938,-0.885 7.907,-7.525c-1.031,-6.641 0.229,-5.224 -1.833,-10.182c-2.063,-4.958 -2.063,-21.205 -2.063,-21.205l0.458,-31.165l-9.602,-1.522Z" style="fill:#fea37e;"/><path d="M1090.16,690.189l-4.486,60.515c-0,-0 3.094,4.073 1.604,8.765c-1.49,4.692 -6.532,7.26 -6.532,7.26c0,0 -8.938,-0.885 -7.907,-7.526c1.032,-6.64 -0.229,-5.223 1.834,-10.181c2.062,-4.958 2.062,-21.205 2.062,-21.205l-0.458,-31.165l13.883,-6.463Z" style="fill:#fea37e;"/><path d="M1057.52,619.466c0,0 -3.308,10.696 -4.932,15.613c-7.546,22.845 -24.287,21.55 -27.188,-0.213c-0.629,-4.717 -2.822,-14.043 -2.822,-14.043l-10.003,2.127c0,0 -0.299,15.178 -1.026,20.427c-0.523,3.777 -2.855,7.284 -3.334,11.064c-1.967,15.498 -10.901,80.146 -8.465,81.919c15.088,10.979 70.194,5.532 72.332,2.766c10.825,-14.008 0.119,-63.432 -1.36,-79.598c-0.439,-4.802 -3.348,-10.621 -4.103,-18.396c-0.553,-5.7 -0.693,-19.245 -0.693,-19.245l-8.406,-2.421Z" style="fill:#e6e6e6;"/></g></svg>