<?xml version="1.0" encoding="UTF-8"?>
<!DOCTYPE svg  PUBLIC '-//W3C//DTD SVG 1.1//EN'  'http://www.w3.org/Graphics/SVG/1.1/DTD/svg11.dtd'>
<svg clip-rule="evenodd" fill-rule="evenodd" stroke-linecap="round" stroke-linejoin="round" stroke-miterlimit="1.5" version="1.1" viewBox="0 0 1920 1080" xml:space="preserve" xmlns="http://www.w3.org/2000/svg" xmlns:serif="http://www.serif.com/"><rect x="-1108.6" y="-36.969" width="4139.8" height="1148" fill="#e6e6e6"/><rect x="-39.954" y="555.74" width="2002.4" height="555.31" fill="#785f4e"/><g serif:id="TV Set"><g serif:id="TV Schrank"><path d="m214.03 591.86c0.881-2.884-0.745-5.942-3.629-6.824l-12.271-3.75c-2.885-0.882-5.943 0.744-6.824 3.629l-26.958 88.202c-0.882 2.885 0.744 5.942 3.629 6.824l12.271 3.75c2.885 0.882 5.942-0.744 6.824-3.629l26.958-88.202z" fill="#1a1a1a"/><path d="m809.48 586.63 22.724-6.946 30.153 98.656-22.724 6.945-30.153-98.655z" fill="#1a1a1a"/><path d="m873.29 451.78c0-8.475-6.88-15.355-15.355-15.355h-701.33c-8.474-0-15.355 6.88-15.355 15.355v139.9c0 8.474 6.881 15.355 15.355 15.355h701.33c8.475-0 15.355-6.881 15.355-15.355v-139.9z" fill="#823600"/><circle cx="367.64" cy="502.29" r="9.073" fill="#dbbf50"/><circle cx="639.43" cy="503.9" r="9.073" fill="#dbbf50"/><path d="m833.21 466.6c-0-2.903-2.353-5.256-5.256-5.256h-648.43c-2.903-0-5.256 2.353-5.256 5.256v106.46c0 2.902 2.353 5.256 5.256 5.256h648.43c2.903-0 5.256-2.354 5.256-5.256v-106.46zm-5.256-0h-648.43v106.46h648.43v-106.46z" fill="#692b00"/></g><rect x="223.26" y="107.25" width="568.12" height="285.03" fill="#f2f2f2"/><clipPath id="c"><rect x="223.26" y="107.25" width="568.12" height="285.03"/></clipPath><g clip-path="url(#c)"><rect x="190.82" y="288.22" width="633.98" height="124.62" fill="#e7c797"/></g><path d="m799.11 107.25c-0-4.264-3.457-7.72-7.72-7.72h-568.12c-4.263-0-7.72 3.456-7.72 7.72v285.03c0 4.264 3.457 7.72 7.72 7.72h568.12c4.263 0 7.72-3.456 7.72-7.72v-285.03zm-7.72-0h-568.12v285.03h568.12v-285.03z" fill="#595959"/><rect x="475.21" y="400.37" width="56.407" height="23.032" fill="#595959"/><rect x="409.5" y="414.36" width="187.83" height="23.032" fill="#595959"/><path d="m752.03 370.19h-481.76l63.865-66.911h354.03l63.865 66.911z" fill="#5c1019"/><g fill="#823600"><path d="m395.42 210.5c-1.381 4.878 2.824 10.345 9.384 12.202s13.007-0.596 14.387-5.474c1.381-4.878-2.824-10.346-9.384-12.202-6.56-1.857-13.007 0.596-14.387 5.474z"/><path d="m370.26 263.66c-2.067 4.629 1.309 10.644 7.534 13.424s12.957 1.279 15.024-3.35-1.308-10.644-7.534-13.424c-6.225-2.78-12.957-1.279-15.024 3.35z"/></g><g fill="#716dcc"><path d="m471.01 247.46c3.464-2.647 8.425-1.983 11.072 1.481l44.369 58.069c2.647 3.464 1.983 8.425-1.481 11.072l-12.553 9.591c-3.464 2.647-8.425 1.983-11.072-1.481l-44.369-58.069c-2.647-3.464-1.983-8.425 1.481-11.072l12.553-9.591z"/><path d="m445.68 290.78c2.116-3.811 6.928-5.187 10.74-3.071l63.892 35.474c3.811 2.116 5.188 6.929 3.071 10.74l-7.668 13.812c-2.116 3.811-6.929 5.187-10.74 3.071l-63.892-35.474c-3.812-2.116-5.188-6.929-3.072-10.74l7.669-13.812z"/><path d="m386.2 266.1c2.002-3.772 6.408-4.597 10.18-2.595l59.105 23.993c3.772 2.002 5.209 6.69 3.208 10.462l-7.254 13.669c-2.001 3.772-6.689 5.21-10.461 3.208l-54.279-33.838c-3.772-2.001-6.66-3.016-4.659-6.788l4.16-8.111z"/><path d="m511.96 319.68c10.76-8.107 23.677-9.139 28.828-2.303 5.15 6.837 0.595 18.968-10.165 27.075s-23.677 9.138-28.828 2.302c-5.15-6.836-0.595-18.968 10.165-27.074z"/><path d="m413.32 209.9c2.831-3.197 7.308-2.964 10.505-0.132l51.816 37.203c3.197 2.832 3.493 7.726 0.661 10.923l-10.261 11.583c-2.831 3.197-7.725 3.493-10.922 0.661l-44.813-45.639c-3.197-2.831-5.766-4.496-2.934-7.692l5.948-6.907z"/></g><path d="m383.08 259.36s-16.36-14.977-20.486-21.523c-3.245-5.148-1.844-14.754-4.269-17.751-2.155-2.664-9.751-3.615-10.277-0.229-1.366 8.789-1.883 43.194 2.079 52.963 2.809 6.925 21.693 5.65 21.693 5.65l11.26-19.11z"/><path d="m409.35 203.97c0.06-6.681-10.694-27.723-10.694-27.723s3.94-14.337 2.847-18.034c-0.972-3.285-7.555-7.025-9.408-4.143-4.998 7.773-21.617 40.404-20.583 50.781 0.963 9.666 20.479 11.629 26.785 11.482 5.527-0.128 11.003-6.835 11.053-12.363z"/><path d="m428.35 214.57c-2.172 5.212 1.523 11.718 8.247 14.52 6.723 2.801 13.944 0.845 16.116-4.367s-1.523-11.718-8.246-14.52-13.945-0.845-16.117 4.367z" fill="#823600"/><path d="m450.25 194.16c0.965-5.563-5.635-11.36-14.73-12.938-9.094-1.578-17.262 1.658-18.227 7.221s5.635 11.361 14.73 12.939c9.095 1.577 17.262-1.658 18.227-7.222z" fill="#823600"/><path d="m443.51 201.65c-2.435-1.296-3.359-4.325-2.064-6.759l4.696-8.824c1.296-2.434 4.325-3.359 6.759-2.063l50.966 27.123c2.435 1.296 3.359 4.325 2.064 6.76l-4.696 8.823c-1.296 2.434-4.325 3.359-6.759 2.063l-50.966-27.123z" fill="#823600"/><path d="m445.87 233.25c-2.435-1.296-3.359-4.325-2.064-6.759l4.696-8.824c1.296-2.434 4.325-3.359 6.759-2.063l50.966 27.123c2.434 1.296 3.359 4.325 2.063 6.76l-4.695 8.823c-1.296 2.435-4.325 3.359-6.76 2.063l-50.965-27.123z" fill="#823600"/><path d="m490.74 229.7c-2.914-1.196-4.308-4.532-3.112-7.446l4.334-10.559c1.196-2.914 4.533-4.308 7.446-3.112l52.562 21.575c2.914 1.196 4.309 4.532 3.113 7.446l-4.335 10.559c-1.196 2.914-4.532 4.308-7.446 3.112l-52.562-21.575z" fill="#823600"/><g fill="#9edff1"><path d="m536.76 239.56c4.413-6.666 13.408-8.495 20.074-4.082l24.157 15.993c6.666 4.413 8.495 13.408 4.082 20.075l-42.341 63.954c-4.414 6.666-13.409 8.495-20.075 4.081l-24.156-15.993c-6.667-4.413-8.496-13.408-4.082-20.074l42.341-63.954z"/><path d="m583.59 255.5c-6.135-4.056-21.372 8.167-34.006 27.277-12.633 19.111-17.909 37.919-11.774 41.975 6.135 4.055 21.373-8.167 34.006-27.278s17.909-37.919 11.774-41.974z"/><path d="m548.44 234.43c-6.135-4.055-21.372 8.168-34.006 27.278-12.633 19.111-17.909 37.919-11.774 41.974 6.135 4.056 21.373-8.167 34.006-27.277 12.633-19.111 17.909-37.919 11.774-41.975z"/></g><g fill="#823600"><path d="m566.87 235.24c0.754-2.357 3.28-3.659 5.638-2.906l3.322 1.063c2.358 0.754 3.66 3.28 2.906 5.637l-2.872 8.986c-0.754 2.357-3.28 3.66-5.638 2.906l-3.323-1.063c-2.357-0.753-3.66-3.28-2.906-5.637l2.873-8.986z"/><path d="m589.82 193.59c-10.574-4.763-23.991 2.1-29.944 15.315-5.952 13.215-2.2 27.811 8.374 32.573 10.574 4.763 23.991-2.099 29.944-15.314 5.952-13.215 2.2-27.811-8.374-32.574z"/></g><path d="m500.54 260.65c-2.704-0.544-4.457-3.181-3.913-5.885l1.972-9.798c0.545-2.704 3.182-4.458 5.886-3.913l64.295 12.942c2.704 0.545 4.457 3.182 3.913 5.886l-1.972 9.798c-0.545 2.704-3.182 4.457-5.886 3.913l-64.295-12.943z" fill="#823600"/><clipPath id="b"><path d="m500.54 260.65c-2.704-0.544-4.457-3.181-3.913-5.885l1.972-9.798c0.545-2.704 3.182-4.458 5.886-3.913l64.295 12.942c2.704 0.545 4.457 3.182 3.913 5.886l-1.972 9.798c-0.545 2.704-3.182 4.457-5.886 3.913l-64.295-12.943z"/></clipPath><g clip-path="url(#b)"><path d="m552.95 369.72c-2.684 4.343-8.661 6.381-13.337 4.55l-16.947-6.636c-4.677-1.831-6.294-6.844-3.609-11.186l27.345-44.231c2.684-4.343 8.66-6.382 13.337-4.55l16.947 6.636c4.676 1.831 6.294 6.844 3.609 11.186l-27.345 44.231z" fill="#ffb988"/></g></g><path d="m1902.7 982.78h-1350.9l186.95-182.22h976.97l186.95 182.22z" fill="#083259"/><g serif:id="Mensch"><g serif:id="Knöchel"><path d="m995.57 554.64c-4.031 14.24 8.245 30.202 27.396 35.622 19.15 5.419 37.97-1.741 42-15.981s-8.246-30.202-27.396-35.622c-19.151-5.419-37.97 1.741-42 15.981z" fill="#ffa667"/><path d="m942.07 668.99c-6.035 13.513 3.82 31.072 21.993 39.187 18.174 8.116 37.827 3.733 43.861-9.78 6.035-13.513-3.821-31.073-21.994-39.188s-37.826-3.733-43.86 9.781z" fill="#ffb988"/></g><g serif:id="Hände"><g serif:id="Schuhe"><g serif:id="Hose"><path d="m1240.9 624.56c10.112-7.727 24.595-5.79 32.322 4.322l129.53 169.52c7.727 10.113 5.79 24.596-4.323 32.323l-36.645 28c-10.112 7.726-24.596 5.789-32.322-4.323l-129.53-169.52c-7.726-10.113-5.789-24.596 4.323-32.323l36.646-27.999z" fill="#716dcc"/><path d="m1167 751.03c6.177-11.127 20.226-15.145 31.353-8.967l186.52 103.56c11.127 6.178 15.144 20.227 8.967 31.353l-22.387 40.32c-6.178 11.127-20.227 15.145-31.353 8.967l-186.52-103.56c-11.127-6.178-15.145-20.227-8.967-31.353l22.387-40.32z" fill="#716dcc"/><path d="m993.35 678.98c5.844-11.012 18.708-13.421 29.72-7.577l172.54 70.045c11.012 5.843 15.208 19.528 9.364 30.54l-21.175 39.905c-5.843 11.012-19.528 15.209-30.54 9.365l-158.46-98.783c-11.012-5.843-19.444-8.805-13.601-19.817l12.143-23.678z" fill="#ffb988"/><path d="m1360.5 835.4c31.412-23.666 69.122-26.678 84.157-6.721 15.036 19.957 1.74 55.373-29.673 79.039-31.412 23.666-69.122 26.677-84.157 6.721-15.035-19.957-1.739-55.373 29.673-79.039z" fill="#716dcc"/><path d="m1043.7 556.73c5.504-11.186 18.288-13.988 29.474-8.484l174.61 64.728c11.186 5.504 15.799 19.053 10.295 30.239l-19.943 40.535c-5.504 11.186-19.053 15.799-30.239 10.296l-161.41-93.885c-11.186-5.503-19.705-8.205-14.201-19.391l11.412-24.038z" fill="#ffa667"/></g><path d="m1026.2 673.1s-64.565-34.459-82.585-53.579c-8.2-8.701-15.461-17.085-19.227-23.061-9.474-15.03-5.385-43.072-12.463-51.82-6.291-7.777-28.466-10.554-30.002-0.669-3.989 25.657-11.007 126.51 6.07 154.62 16.859 27.747 96.39 14.01 96.39 14.01l41.817-39.496z" fill="#ffb988"/><path d="m1063 546.34c-20.71 1.475-53.393-11.562-67.339-36.362-8.512-15.137 2.329-35.815 4.119-44.79 2.394-12.003 9.865-31.379 6.545-36.682-3.321-5.302-21.457-2.576-26.467 4.865-13.261 19.698-58.785 88.202-53.104 113.32 5.681 25.123 64.482 37.47 87.189 37.41 4.319-0.011 26.944 15.781 32.58 13.093 21.295-10.156 29.204-51.764 16.477-50.858z" fill="#ffa667"/></g><path d="m1072.7 542.79c-6.341 15.215 4.446 34.209 24.074 42.388 19.627 8.179 40.709 2.467 47.05-12.748 6.34-15.215-4.447-34.208-24.074-42.387-19.627-8.18-40.709-2.468-47.05 12.747z" fill="#ffb988"/><path d="m1163.2 489.86c2.818-16.241-16.45-33.165-43.001-37.771s-50.394 4.84-53.211 21.08c-2.817 16.241 16.451 33.166 43.001 37.772 26.551 4.606 50.394-4.84 53.211-21.081z" fill="#ffa667"/></g><g serif:id="Oberteil"><path d="m1110.5 508.09c-7.558-2.775-11.441-11.165-8.666-18.723l10.058-27.39c2.775-7.559 11.165-11.442 18.723-8.666l158.21 58.095c7.558 2.775 11.442 11.165 8.666 18.723l-10.057 27.39c-2.776 7.559-11.165 11.442-18.724 8.666l-158.21-58.095z" fill="#ffa667"/><path d="m1100.1 582.41c-7.524-2.866-11.306-11.301-8.44-18.826l10.385-27.267c2.866-7.525 11.302-11.307 18.827-8.441l157.5 59.992c7.525 2.866 11.307 11.302 8.441 18.826l-10.386 27.267c-2.866 7.525-11.302 11.307-18.826 8.441l-157.5-59.992z" fill="#ffb988"/><path d="m1258.3 570.35c-8.904-2.296-14.269-11.389-11.973-20.292l8.319-32.265c2.296-8.904 11.388-14.269 20.292-11.973l160.62 41.413c8.904 2.296 14.269 11.388 11.973 20.292l-8.319 32.265c-2.296 8.903-11.389 14.268-20.292 11.973l-160.62-41.413z" fill="#ffa667"/><g fill="#9edff1" serif:id="Rumpf"><path d="m1395.3 580.48c10.103-21.04 35.386-29.92 56.425-19.817l76.242 36.607c21.039 10.102 29.919 35.385 19.817 56.425l-96.918 201.85c-10.102 21.04-35.386 29.92-56.425 19.817l-76.242-36.607c-21.039-10.102-29.919-35.385-19.817-56.425l96.918-201.85z"/><path d="m1537.1 607.91c-19.361-9.28-58.547 32.149-87.453 92.457-28.906 60.309-36.656 116.8-17.295 126.08 19.36 9.28 58.547-32.149 87.453-92.458 28.906-60.308 36.656-116.8 17.295-126.08z"/><path d="m1427 561.01c-19.361-9.28-58.547 32.149-87.453 92.458-28.906 60.308-36.656 116.8-17.295 126.08 19.36 9.28 58.547-32.149 87.453-92.457 28.906-60.309 36.656-116.8 17.295-126.08z"/></g></g><g fill="#ffb988" serif:id="Kopf"><path d="m1458.1 549c2.2-6.883 9.575-10.685 16.458-8.484l9.7 3.101c6.883 2.201 10.684 9.575 8.484 16.458l-8.387 26.231c-2.2 6.883-9.575 10.684-16.458 8.484l-9.7-3.102c-6.883-2.2-10.684-9.575-8.484-16.458l8.387-26.23z"/><path d="m1525.1 427.42c-30.869-13.904-70.038 6.129-87.415 44.708s-6.424 81.189 24.445 95.093 70.038-6.129 87.415-44.708 6.424-81.188-24.445-95.093z"/></g><path d="m1442.5 444.06c7.125-27.138 38.585-42.395 70.266-34.077 31.682 8.319 51.588 37.062 44.463 64.2l-114.73-30.123z"/><path d="m1404.4 428.29c0.224-0.773 1.034-1.218 1.807-0.994l44.807 12.996c0.773 0.224 1.219 1.034 0.995 1.807l-0.813 2.801c-0.224 0.772-1.034 1.218-1.807 0.994l-44.807-12.996c-0.773-0.224-1.218-1.034-0.994-1.807l0.812-2.801z"/><path d="m1517.7 684.36s-24.228 71.236-48.382 95.291" fill="none" stroke="#cceef8" stroke-width="7.72px"/><path d="m1274 644.06c-7.894-1.589-13.013-9.288-11.424-17.181l5.758-28.604c1.589-7.894 9.288-13.012 17.181-11.423l187.7 37.783c7.894 1.589 13.012 9.287 11.423 17.181l-5.757 28.604c-1.589 7.893-9.288 13.012-17.182 11.423l-187.7-37.783z" fill="#ffb988"/><clipPath id="a"><path d="m1274 644.06c-7.894-1.589-13.013-9.288-11.424-17.181l5.758-28.604c1.589-7.894 9.288-13.012 17.181-11.423l187.7 37.783c7.894 1.589 13.012 9.287 11.423 17.181l-5.757 28.604c-1.589 7.893-9.288 13.012-17.182 11.423l-187.7-37.783z"/></clipPath><g clip-path="url(#a)"><path d="m1427 962.49c-7.837 12.676-25.284 18.628-38.936 13.282l-49.473-19.373c-13.652-5.347-18.374-19.979-10.537-32.656l79.828-129.12c7.837-12.677 25.284-18.628 38.936-13.282l49.473 19.373c13.652 5.346 18.374 19.979 10.536 32.656l-79.827 129.12z" fill="#ffb988"/></g></g></svg>
