<?xml version="1.0" encoding="UTF-8"?>
<!DOCTYPE svg  PUBLIC '-//W3C//DTD SVG 1.1//EN'  'http://www.w3.org/Graphics/SVG/1.1/DTD/svg11.dtd'>
<svg clip-rule="evenodd" fill-rule="evenodd" stroke-linecap="round" stroke-linejoin="round" stroke-miterlimit="1.5" version="1.1" viewBox="0 0 1920 1080" xml:space="preserve" xmlns="http://www.w3.org/2000/svg" xmlns:serif="http://www.serif.com/"><g serif:id="Person mit  CLocktail"><ellipse cx="1445.9" cy="226.24" rx="61.161" ry="70.49" fill="#ffb988"/><path d="m1348.7 814.18c4.155 21.264 0.978 94.834-13.198 117.32-13.152 20.861-52.795 18.576-71.859 17.598-16.17-0.829-48.639-13.443-42.529-23.464 6.111-10.021 64.282-16.376 79.191-36.662 14.91-20.287 2.2-72.593 10.266-85.058 7.15-11.051 35.605-2.652 38.129 10.266z" fill="#ffb988"/><path d="m1421.3 870.58c-7.609 19.341 8.009 77.888 1.922 107.64-5.387 26.332-41.358 60.834-38.444 70.88 4.565 15.739 52.46 8.787 65.835-14.416 9.25-16.048 12.167-41.219 14.416-62.471 3.044-28.753 11.133-93.106 3.844-110.04-6.364-14.793-41.678-6.576-47.573 8.41z" fill="#ffb988"/><path d="m1469.6 682.47c23.065 30.845-3.055 83.102-3.666 115.49-0.496 26.27 8.554 67.215-0 78.825-8.555 11.61-42.246 5.652-51.328-9.166-11.61-18.942-13.749-75.464-18.331-104.49-3.653-23.134-1.528-77.909-9.166-69.659-7.638 8.249-23.525 99.294-36.663 119.15-7.754 11.722-39.833 13.86-42.162 0-6.11-36.357-21.386-196.45 5.5-218.14s130.46 54.078 155.82 87.991z" fill="#ff3881"/><path d="m1418.3 295.49c18.331 0 38.094-0.286 54.994 0 15.475 0.262 36.995-10.573 46.401 1.719 39.045 51.028 26.987 198.6-3.437 244.04-15.197 22.693-4.583 55.567-13.749 80.772-9.165 25.206-14.042 71.261-41.245 70.461-29.216-0.859-108.56-57.858-134.05-75.617-9.916-6.907-19.765-18.88-18.904-30.934 2.864-40.099 43.104-204.18 36.089-209.66-43.902-34.338-159.08-105.46-163.26-159.83-1.12-14.562 16.016-38.905 29.216-32.652 21.768 10.311 66.737 75.903 101.4 94.521 31.692 17.025 71.034 11.457 106.55 17.185" fill="#54993e"/><path d="m1051.1 175.4s9.605 22.422 4.99 32.285c-13.627 29.123-14.093 130.74-7.412 129.66l-0.27 16.324 135.2 0.482-1.36-21.627c0.424-7.125 7.567-40.785 7.201-61.384-0.442-24.898-10.259-71.84-9.856-88.007l2.989-7.846s-47.483 9.671-69.398 9.691c-21.56 0.018-62.088-9.577-62.088-9.577z" fill="#f6cf2a"/><clipPath id="b"><path d="m1051.1 175.4s9.605 22.422 4.99 32.285c-13.627 29.123-14.093 130.74-7.412 129.66l-0.27 16.324 135.2 0.482-1.36-21.627c0.424-7.125 7.567-40.785 7.201-61.384-0.442-24.898-10.259-71.84-9.856-88.007l2.989-7.846s-47.483 9.671-69.398 9.691c-21.56 0.018-62.088-9.577-62.088-9.577z"/></clipPath><g clip-path="url(#b)" fill="none" stroke="#fae690" stroke-width="3.5px"><path d="m1065.2 235.07s4.791-19.32 34.163-30.89"/><path d="m1132.6 323.86s30.62-1.142 43.101-21.269"/></g><path d="m1145.8 236.4c12.689 15.419 7.652 40.56-11.242 56.108-18.893 15.547-44.534 15.652-57.222 0.232-12.689-15.419-7.652-40.56 11.242-56.107 18.893-15.548 44.534-15.652 57.222-0.233z" fill="#f2f2f2"/><clipPath id="a"><path d="m1145.8 236.4c12.689 15.419 7.652 40.56-11.242 56.108-18.893 15.547-44.534 15.652-57.222 0.232-12.689-15.419-7.652-40.56 11.242-56.107 18.893-15.548 44.534-15.652 57.222-0.233z"/></clipPath><g clip-path="url(#a)"><g serif:id="Chip 1"><path d="m1128.9 245.11c11.421-6.151 18.122-3.151 19.905 9.383" fill="#f8b227"/><path d="m1124.3 253.29c3.853 0.334 17.575 3.188 21.079 8.417 0.686 1.024 3.09-0.309 3.377-1.508 3.039-12.693-14.312-20.072-22.413-13.625-1.831 1.457-3.015 6.631-2.043 6.716z" fill="#f5ce29"/></g><g serif:id="Chip 2"><path d="m1111.4 274.38c-2.01 0.421-11.596 5.199-13.685 7.633-1.69 1.971-0.689 6.27 0.957 7.729 5.955 5.28 15.441 2.261 12.163-6.311-0.486-1.271-1.12-2.583-1.059-3.943 0.061-1.383 3.12-5.421 1.624-5.108z" fill="#f5ce29"/><path d="m1111.2 275.13c-2.208 1.408-13.49 6.879-13.49 6.879s2.442-13.758 4.633-15.011c1.754-1.001 3.618-2.407 5.452-2.466 6.777-0.218 10.159 6.292 3.405 10.598z" fill="#f8b227"/></g><g serif:id="Chip 2"><path d="m1131.9 273.34c0.262-2.037-1.11-12.659-2.726-15.431-1.307-2.243-5.697-2.707-7.615-1.63-6.94 3.896-7.197 13.847 1.976 13.56 1.36-0.043 2.807-0.211 4.072 0.292 1.286 0.511 4.099 4.724 4.293 3.209z" fill="#f5ce29"/><path d="m1131.2 272.91c-0.605-2.548-2.077-15-2.077-15s12.199 6.817 12.663 9.298c0.372 1.985 1.088 4.207 0.543 5.958-2.016 6.475-9.275 7.536-11.129-0.256z" fill="#f8b227"/></g><g serif:id="Chip 3"><path d="m1109.4 258.86c4.185-6.608 2.792-11.893-3.59-15.995" fill="#f8b227"/><path d="m1105.8 242.86c4.256 2.758 6.373 20.033-0.294 20.259-3.526 0.119-11.016-0.896-13.972-0.543-2.239 0.268-3.851-3.396-3.723-5.647 0.138-2.422 2.289-7.179 4.549-8.887 2.26-1.707 6.772-0.496 9.012-1.359 1.819-0.702 2.792-4.883 4.428-3.823z" fill="#f5ce29"/></g></g><path d="m1048.7 337.34 133.57-4.821 1.829 21.894-135.68-0.678 0.28-16.395z" fill="#dc0000"/><path d="m1051.2 175.02c43.508-0.149 87.782-0.511 131.97 0.091l-3.244 14.244-125.29-0.154-3.437-14.181z" fill="#dc0000"/><path d="m1184.3 225.88c4.8 4.799 14.954 2.833 20.32-1.325 5.829-4.516 16.13-16.911 14.654-25.773-1.475-8.863-13.318-23.956-23.506-27.404-10.188-3.447-35.711-2.365-37.623 6.718-1.911 9.084 18.409 40.041 26.155 47.784z" fill="#ffb988"/></g><path d="m964.46 623.78-63.026-224.09-641.46-5.603 141.46 236.7 563.03-7.003z" fill="#4d4d4d"/><path d="m1159.7 530.8-226.16-16.941 28.815 108.16 89.557 11.3 107.79-102.51z" fill="#1a1a1a"/><path d="m962.36 622.02 88.514 10.536 0.411 3.257-619.35-1.351v-6.023l530.42-6.419z" fill="#595959"/><path d="m259.71 391.43-51.134 15.25 19.736 117.74 107.14-4.821-75.741-128.17z" fill="#1a1a1a"/><path d="m431.57 634.08 626.72 0.907 11.205 86.835-649.01 2.801 11.083-90.543z" fill="#4d4d4d"/><g serif:id="Mensch im Sitzsack"><path d="m731.2 813.75c-4.496 5.95-0.86 20.495 0.793 26.578 1.178 4.334 5.224 7.688 9.124 9.917 7.867 4.495 25.251 11.686 38.081 17.057 14.214 5.95 32.462 17.123 47.205 18.644 14.038 1.448 33.916-4.562 41.254-9.521 5.64-3.81 4.298-14.346 2.777-20.23-1.52-5.884-6.479-11.67-11.9-15.074-8.529-5.355-28.693-13.024-39.271-17.057-7.858-2.996-18.049-4.562-24.198-7.14-4.667-1.958-7.903-6.699-12.694-8.331-6.016-2.049-15.531-4.76-23.404-3.966-8.528 0.859-23.271 3.173-27.767 9.123z" fill="#595959"/><path d="m780.24 770.69c-4.496 5.95-0.86 20.495 0.793 26.578 1.178 4.334 5.224 7.688 9.124 9.917 7.867 4.495 25.251 11.686 38.081 17.057 14.214 5.95 32.461 17.123 47.205 18.644 14.038 1.448 33.916-4.562 41.254-9.521 5.64-3.81 4.298-14.346 2.777-20.23s-6.479-11.67-11.9-15.074c-8.529-5.355-28.694-13.024-39.272-17.057-7.858-2.996-18.049-4.562-24.197-7.14-4.667-1.958-7.903-6.699-12.694-8.331-6.016-2.049-15.531-4.76-23.404-3.966-8.528 0.859-23.272 3.173-27.767 9.123z" fill="#595959"/><path d="m591.22 563.41s141.82 17.458 149.8 28.313c10.571 14.382 24.593 77.819 38.004 134.51-0-0-0.063 28.674 2.239 41.425 2.187 12.117 5.971 29.172 11.569 35.081 2.98 3.146 7.926 3.856 12.77 3.232 3.362-0.433 6.675-1.509 9.249-2.859 6.282-3.297 14.984-11.671 15.674-20.153 1.679-20.65-5.598-103.75-5.598-103.75l2.845-53.441s1.549-58.162-28.441-78.457c-35.23-23.841-192.68-63.054-192.68-63.054l-36.18 36.217-11.196 37.319 11.569 20.9 20.372-15.282z" fill="#1a1a1a"/><path d="m548.62 635.5 113.89 15.495 53.458 133.26s9.685 24.275 14.721 33.314c4.223 7.581 8.081 16.41 15.495 20.919 9.556 5.811 34.09 17.561 41.837 13.946 7.748-3.616 8.165-24.187 4.649-35.639-4.519-14.721-25.735-33.085-31.765-52.684-11.363-36.931-13.429-135.84-36.414-168.9-20.11-28.921-65.843-25.086-101.49-29.441l-41.837-3.099c-26.624 12.732-36.896 37.429-32.54 72.828" fill="#1a1a1a"/><path d="m480.25 313.67c21.044-1.591 51.328-14.527 62.949-6.78 11.622 7.748 26.142 30.665 31.959 49.392 6.618 21.306 3.39 59.237 7.748 78.444 3.035 13.376 12.267 32.121 18.4 36.802 5.396 4.117 18.777 25.063 11.622 39.706-13.881 28.408-53.426 106.37-76.508 122.03-18.771 12.733-45.859-12.13-61.981-28.085-31.152-30.83-86.193-125.74-124.93-156.89-28.992-23.315-103.62-4.52-107.5-30.022-3.874-25.503 84.255-122.99 84.255-122.99l27.117 17.432-43.58 58.107s22.418-14.202 32.927-22.274c11.137-8.555 19.471-25.397 33.896-29.054 22.92-5.81 75.862-3.712 103.62-5.81z" fill="#9edff1"/><path d="m509.15 585.95 44.845-71.005 13.946-23.242-24.792-70.504-16.27-49.585" fill="none" stroke="#8ad9ee" stroke-width="9.13px"/><path d="m595.06 478.53 7.748 44.936" fill="none" stroke="#8ad9ee" stroke-width="2.44px"/><path d="m546.91 602.77c5.342 11.425-2.274 42.524-5.712 51.727-1.787 4.783-10.16 5.35-14.915 3.491-7.035-2.75-22.532-14.122-27.292-19.993-3.209-3.957-1.535-10.144-1.269-15.232 0.317-6.083 1.269-15.127 3.173-21.262 1.739-5.604 2.386-15.712 8.251-15.55 7.669 0.212 32.422 5.395 37.764 16.819z" fill="#ffb988"/><path d="m325.56 296.77c4.622-9.685 28.838-22.673 36.626-25.802 4.048-1.626 8.813 3.108 10.102 7.03 1.906 5.802 2.652 21.588 1.335 27.782-0.888 4.175-5.788 6.663-9.236 9.379-4.12 3.248-10.5 7.788-15.488 10.108-4.556 2.119-11.466 7.444-14.441 3.812-3.89-4.75-13.519-22.624-8.898-32.309z" fill="#ffb988"/><path d="m398.23 211.88c26.801-12.539 60.792 3.427 75.858 35.631 15.067 32.204 5.54 68.53-21.261 81.069-26.8 12.538-60.791-3.428-75.858-35.632s-5.54-68.53 21.261-81.068z" fill="#ffb988"/></g><path d="m444.84 525.74-103.64-8.404 4.364 271.34 69.867 1.773 29.412-264.71z" fill="#404040"/><path d="m341.2 517.34-252.1 14.006 42.017 252.1 217.09 5.602-7.003-271.71z" fill="#333"/><path d="m1048.5 534.15 5.603 254.9 72.83 1.401 33.614-259.11-112.05 2.801" fill="#404040"/><path d="m1054.1 789.05-98.082-66.738 104.4-2.109-6.317 68.847z" fill="#1a1a1a"/></svg>
