<?xml version="1.0" encoding="UTF-8"?>
<!DOCTYPE svg  PUBLIC '-//W3C//DTD SVG 1.1//EN'  'http://www.w3.org/Graphics/SVG/1.1/DTD/svg11.dtd'>
<svg clip-rule="evenodd" fill-rule="evenodd" stroke-linejoin="round" stroke-miterlimit="2" version="1.1" viewBox="0 0 1920 1080" xml:space="preserve" xmlns="http://www.w3.org/2000/svg"><circle cx="1161.4" cy="711.98" r="254.99" fill="#3bd9a8"/><g fill="#3bd9a8"><path d="m1126.1 349.32c15.036-9.729 42.454-10.613 66.539-0.816 24.084 9.797-17.553 25.309-17.553 25.309l-1.633 86.132h-26.942v-87.357s-27.692-18.556-20.411-23.268z"/><path d="m957.16 456.11c4.123-12.474 19.337-26.025 37.527-32.16 18.191-6.135 1.556 22.173 1.556 22.173l38.389 47.766-15.345 12.842-39.879-47.656s-24.244 3.076-22.248-2.965z"/><path d="m833.7 735.53c-7.333-10.9-8.724-31.226-2.429-49.362s18.478 12.354 18.478 12.354l61.272-1.08 0.748 19.996-62.096 2.325s-12.421 21.046-15.973 15.767z"/><path d="m976.65 979.23c-13.108-0.881-30.025-12.234-40.504-28.32-10.478-16.085 21.085-7.036 21.085-7.036l36.681-49.09 16.264 11.658-36.204 50.504s9.026 22.711 2.678 22.284z"/><path d="m1240.4 1024.5c-8.727 9.82-28.064 16.236-47.197 14.664-19.133-1.573 7.355-20.976 7.355-20.976l-16.328-59.065 19.177-5.713 17.739 59.555s23.48 6.779 19.254 11.535z"/><path d="m1443.3 862.58c-0.614 13.123-11.62 30.268-27.489 41.072s-7.465-20.937-7.465-20.937l-49.827-35.674 11.325-16.497 51.231 35.167s22.522-9.487 22.225-3.131z"/><path d="m1460.7 582.67c11.094 7.037 20.53 25.094 22.049 44.231 1.518 19.137-21.885-3.893-21.885-3.893l-55.679 25.596-8.716-18.012 55.935-27.067s2.923-24.264 8.296-20.855z"/><path d="m1237.8 394.12c13.13-0.448 31.108 9.138 43.158 24.083 12.049 14.944-20.266 9.13-20.266 9.13l-31.534 52.545-17.358-9.955 30.915-53.904s-11.273-21.683-4.915-21.899z"/><path d="m1393.2 439.9c17.289 4.673 36.281 24.467 45.103 48.926 8.821 24.459-30.556 3.874-30.556 3.874l-65.133 56.384-18.016-20.032 64.951-58.417s-4.721-32.999 3.651-30.735z"/><path d="m1524.5 727.66c8.086 15.979 6.069 43.337-6.217 66.252s-23.313-20.128-23.313-20.128l-85.478-10.722 2.846-26.792 86.868 9.228s21.378-25.577 25.294-17.838z"/><path d="m1387 995.68c-6.473 16.698-28.163 33.494-53.417 39.682-25.253 6.189-0.624-30.794-0.624-30.794l-49.189-70.724 21.823-15.8 51.229 70.759s33.313-1.209 30.178 6.877z"/><path d="m1094.5 1064.2c-16.744 6.353-43.737 1.458-65.225-13.18-21.489-14.638 22.478-21.057 22.478-21.057l19.691-83.867 26.341 5.66-18.352 85.408s23.175 23.96 15.067 27.036z"/><path d="m855.43 903.39c-15.921-8.201-30.331-31.544-33.818-57.31-3.486-25.766 30.688 2.632 30.688 2.632l75.525-41.443 13.406 23.37-75.775 43.468s-2.316 33.254-10.026 29.283z"/><path d="m821.25 601.9c-4.549-17.322 3.17-43.646 19.997-63.468 16.826-19.822 18.564 24.577 18.564 24.577l81.318 28.44-8.411 25.596-82.991-27.272s-26.274 20.515-28.477 12.127z"/></g><circle cx="1114.6" cy="884.7" r="28.702" fill="#388976"/><ellipse cx="1151.6" cy="757.72" rx="17.972" ry="24.504" fill="#388976"/><path d="m997.31 809.14c12.387 9.874 17.451 24.155 11.3 31.871-6.151 7.717-21.201 5.965-33.589-3.909-12.387-9.874-17.451-24.155-11.3-31.871 6.151-7.717 21.201-5.965 33.589 3.909z" fill="#388976"/><path d="m1313.7 738.06c10.211-5.756 21.942-4.324 26.181 3.195 4.238 7.52-0.611 18.298-10.822 24.053-10.211 5.756-21.942 4.324-26.18-3.195-4.239-7.52 0.61-18.297 10.821-24.053z" fill="#388976"/><ellipse cx="1073" cy="607.63" rx="26.836" ry="26.37" fill="#388976"/><ellipse cx="1040" cy="729.86" rx="29.635" ry="22.637" fill="#388976"/><path d="m1357.4 636.05c9.823-6.009 24.51 0.083 32.777 13.597 8.266 13.513 7.002 29.363-2.821 35.372s-24.51-0.083-32.776-13.596c-8.267-13.514-7.003-29.363 2.82-35.373z" fill="#388976"/><circle cx="1268.6" cy="634.6" r="28.702" fill="#388976"/><ellipse cx="1170.2" cy="527.99" rx="28.702" ry="20.502" fill="#388976"/><ellipse cx="1247.3" cy="876.61" rx="30.195" ry="25.727" fill="#388976"/><path d="m1115.9 164.45c-32.762 16.146-46.252 55.854-30.106 88.616l58.511 118.72c16.146 32.762 55.854 46.252 88.616 30.106l247.48-121.97c32.763-16.147 46.253-55.855 30.106-88.617l-58.51-118.72c-16.147-32.762-55.855-46.252-88.617-30.106l-247.48 121.97z" fill="#d9d9d9"/><path d="m1473 254.44c10.519-5.184 14.851-17.933 9.667-28.452l-75.145-152.47c-5.184-10.519-17.933-14.851-28.452-9.667l-255.82 126.08c-10.519 5.184-14.85 17.933-9.666 28.452l75.144 152.47c5.184 10.519 17.933 14.85 28.452 9.666l255.82-126.08z" fill="#f2f2f2"/><clipPath id="a"><path d="m1473 254.44c10.519-5.184 14.851-17.933 9.667-28.452l-75.145-152.47c-5.184-10.519-17.933-14.851-28.452-9.667l-255.82 126.08c-10.519 5.184-14.85 17.933-9.666 28.452l75.144 152.47c5.184 10.519 17.933 14.85 28.452 9.666l255.82-126.08z"/></clipPath><g clip-path="url(#a)"><g transform="matrix(2.9534 -1.4555 1.4555 2.9534 -3124.3 363.93)" font-family="'AvenirLTStd-Roman', 'Avenir LT Std', sans-serif" font-size="12px"><text x="1180.49px" y="537.634px">V<tspan x="1187.16px " y="537.634px ">a</tspan>ccine</text><text x="1180.49px" y="552.034px">AstraZeneca</text></g><g transform="matrix(.89698 -.44206 .44206 .89698 -529.05 -1305.6)"><text x="820.874px" y="2252.49px" font-family="'AvenirLTStd-Roman', 'Avenir LT Std', sans-serif" font-size="39.51px">COVID-19</text></g><path d="m1411.3 201.48-8.836-17.929-246.22 121.35 8.836 17.928 246.22-121.35z" fill="#7d0d8d"/></g><path d="m1041.4 254.07c-9.219 4.543-13.015 15.716-8.472 24.934l58.608 118.92c4.543 9.219 15.716 13.015 24.935 8.471l33.406-16.463c9.218-4.543 13.014-15.716 8.471-24.935l-58.608-118.92c-4.543-9.218-15.716-13.014-24.935-8.471l-33.405 16.464z" fill="#d9d9d9"/><path d="m967.43 258.26c-9.219 4.543-13.015 15.716-8.471 24.934l84.175 170.8c4.543 9.219 15.716 13.014 24.935 8.471l33.406-16.463c9.218-4.544 13.014-15.717 8.471-24.935l-84.175-170.8c-4.544-9.218-15.717-13.014-24.935-8.471l-33.406 16.464z" fill="#a6a6a6"/><path d="m704.23 595.63-56.757-114.98-422.95 208.78 56.757 114.98 422.95-208.78z" fill="#d9d9d9"/><path d="m256 792.35-37.275-75.51-160.78 79.367 37.275 75.509 160.78-79.366z" fill="#f2f2f2"/><path d="m495.48 674.13-37.274-75.509-227.59 112.35 37.275 75.509 227.59-112.35z" fill="#f2f2f2"/><path d="m102.9 883.98-50.016-101.32-12.621 6.231 50.016 101.32 12.621-6.23z" fill="#d9d9d9"/><path d="m296.36 829.5-82.585-167.3-17.909 8.841 82.585 167.3 17.909-8.841z" fill="#d9d9d9"/><path d="m750.36 535.34-26.972-54.639-61.29 30.255 26.972 54.639 61.29-30.255z" fill="#d9d9d9"/><path d="m690.28 577.97-37.275-75.509-182.59 90.133 37.275 75.51 182.59-90.134z" fill="#c8e1fc"/><path d="m515.06 679.04-48.839-98.936-22.66 11.186 48.839 98.936 22.66-11.186z" fill="#404040"/><path d="m1007.1 381.1-5.132-10.395-217.17 107.21 5.131 10.394 217.17-107.2z" fill="#d9d9d9"/><path d="m800.8 476.43-50.526 59.293-27.269-55.241 77.795-4.052z" fill="#d9d9d9"/></svg>
