<?xml version="1.0" encoding="UTF-8"?>
<!DOCTYPE svg  PUBLIC '-//W3C//DTD SVG 1.1//EN'  'http://www.w3.org/Graphics/SVG/1.1/DTD/svg11.dtd'>
<svg clip-rule="evenodd" fill-rule="evenodd" stroke-linecap="round" stroke-linejoin="round" stroke-miterlimit="1.5" version="1.1" viewBox="0 0 1920 1080" xml:space="preserve" xmlns="http://www.w3.org/2000/svg"><rect x="-37.744" y="-101.44" width="2003.7" height="1233.4" fill="#33c470"/><clipPath id="a"><rect x="-37.744" y="-101.44" width="2003.7" height="1233.4"/></clipPath><g clip-path="url(#a)"><path d="m-74.601 193.33c120.56-27.983 269.72 170.23 332.88 442.36 63.166 272.13 16.57 515.79-103.99 543.77s-269.72-170.23-332.88-442.36c-63.166-272.13-16.57-515.79 103.99-543.77z" fill="#1cafd1"/></g><rect x="-49.61" y="-116.27" width="2003.7" height="509.03" fill="#bed8ee"/><path d="m729.08 521.65c8.19 5.571 8.741 19.061 1.229 30.105-7.511 11.044-20.26 15.487-28.45 9.916-8.191-5.571-8.742-19.06-1.23-30.104s20.26-15.488 28.451-9.917z" fill="#ff9c34"/><path d="m716.55 560.04c0-2.404-1.952-4.356-4.357-4.356h-8.713c-2.405-0-4.357 1.952-4.357 4.356v13.615c0 2.405 1.952 4.357 4.357 4.357h8.713c2.405-0 4.357-1.952 4.357-4.357v-13.615z" fill="#ff9c34"/><path d="m709.37 571.33c6.919 3.839 20.461 3.837 22.865 12.122 2.903 10.007-2.338 38.518-5.446 47.924-1.643 4.97-8.646 11.088-13.201 8.508-5.128-2.903-17.567-25.931-17.567-25.931s-9.86-1.419-13.662 1.115c-5.856 3.904-15.847 18.31-21.47 22.307-3.364 2.391-12.269 1.673-12.269 1.673s9.852-9.62 10.596-15.615c0.743-5.995-1.22-15.249-6.135-20.354-8.364-8.691-36.765-25.634-44.055-31.787-1.945-1.642 9.916-16.039 18.124-19.239 10.131-3.951 32.066-5.856 42.661-4.462 8.108 1.067 14.32 8.87 20.913 12.826 6.175 3.706 12.349 7.419 18.646 10.913z" fill="#5f54a3"/><path d="m609.03 571.29c-6.399 0.225 9.802-15.677 18.124-19.239 10.629-4.55 43.794-6.249 43.915-5.046-0 0-2.556 10.97-6.944 11.208-12.967 0.704-49.991 12.897-55.095 13.077z" fill="#ff9c34"/><path d="m684.42 570.6c4.681 28.327 12.089 53.661 28.349 69.285 5.106 2.072 9.332-0.291 12.53-5.306 0 0-8.232-24.804-13.437-35.688-5.614-11.738-20.552-34.715-20.552-34.715l-6.89 6.424z" fill="#ff9c34"/><path d="m541.77 648.61 15.532-1.26 14.062 11.334-4.407 12.174-35.275 29.102v0.011l-5.591 5.662-40.543 17.932s-6.371 5.886-10.396 7.017c-5.241 1.473-21.051 1.819-21.051 1.819s-6.324 1.213-8.056-0.52c-1.733-1.732-4.004-6.93-2.339-9.875 1.689-2.989 12.475-8.057 12.475-8.057s15.203-9.659 20.271-11.175c3.304-0.989 9.111 0.996 11.97-0.934 5.332-3.6 20.026-20.668 20.026-20.668l3.349-5.427 29.973-27.135z" fill="#ff9c34"/><path d="m619.43 579.29 11.963 7.999c11.457 5.994 23.398 17.23 28.301 22.299 8.218 8.497-7.536 33.012-12.123 31.018l-29.142 5.069-42.154 22.485-10.191 4.832s-6.304-7.882-7.828-11.142c-1.819-3.889-16.476-12.924-15.095-14.004 2.807-2.193 14.799-7.071 14.799-7.071l33.676-28.593 29.469-23.959-1.675-8.933z" fill="#01b5ff"/><path d="m554.04 581.02c1.801 6.617 23.058 43.955 23.058 43.955l49.763-41.367-76.748-57.744s-0.571 38.638 3.927 55.156z" fill="#0095d7"/><path d="m552.3 526.94c0.474 4.299-1.236 15.115-1.19 22.216 0.011 1.703 1.023 4.839-1.293 5.132-16.853 2.135-47.184-10.237-33.15-19.125l13.401-16.446 11.573 0.305s10.175 3.518 10.659 7.918z" fill="#01b5ff"/><path d="m519.22 542.04c-9.655 9.36-11.509 75.805-12.289 85.681-0.78 9.875-5.198 18.452-5.198 18.452l-22.35 12.994-0.26 5.718 9.616 2.858 19.751-4.158 15.334-6.237 1.039-7.017-2.079-3.639 12.735-42.102 0.26-10.395c-1.083-1.141 13.872-40.464 12.769-41.39-2.148-1.802-24.934-15.023-29.328-10.765z" fill="#ff9c34"/><path d="m685.4 556.27c3.04-0.841 6.636 2.554 8.025 7.575 1.389 5.022 0.048 9.781-2.993 10.622-3.04 0.841-6.636-2.553-8.025-7.575-1.389-5.021-0.048-9.781 2.993-10.622z" fill="#ff9c34"/><path d="m677.19 551.67c0.17 3.15-3.917 5.934-9.119 6.215-5.203 0.28-9.564-2.051-9.734-5.201-0.169-3.15 3.917-5.935 9.119-6.215 5.203-0.28 9.564 2.05 9.734 5.201z" fill="#ff9c34"/><ellipse cx="709.18" cy="532.24" rx="5.753" ry="5.178" fill="#0d0d0d"/><ellipse cx="721.54" cy="538.28" rx="5.753" ry="5.178" fill="#0d0d0d"/><path d="m716.44 535.9s0.294-2.01-1.968-1.848" fill="none" stroke="#0d0d0d" stroke-width=".4px"/><path d="m726.64 540.8 7.217 5.817" fill="none" stroke="#0d0d0d" stroke-width=".4px"/><path d="m704.38 530.05-1.901-0.552" fill="none" stroke="#0d0d0d" stroke-width=".4px"/><path d="m1170.3 677.64c123.4-76.866 269.81-65.06 326.75 26.347 56.937 91.406 2.977 228.02-120.42 304.89s-269.81 65.06-326.75-26.347-2.976-228.02 120.42-304.89z" fill="#2caa61"/><path d="m1166.2 671.08c-127.47 79.398-181.71 221.1-122.9 315.52s209.92 108.22 337.38 28.818c127.47-79.399 181.71-221.1 122.9-315.52s-209.92-108.22-337.38-28.818zm4.081 6.553c123.4-76.866 269.81-65.06 326.75 26.347 56.937 91.406 2.977 228.02-120.42 304.89s-269.81 65.06-326.75-26.347-2.976-228.02 120.42-304.89z" fill="#2caa61"/><g fill="none" stroke="#fbe815" stroke-width="7.02px"><path d="m1862.7 240.06 14.643 104.76"/><path d="m1783.8 231.04-27.033 114.89"/><path d="m1709.5 199.5-77.722 111.51"/><path d="m1657.7 148.82-67.584 42.803"/><path d="m1623.9 65.463-150.94 54.067"/><path d="m1609.2-0.995-130.66-16.896"/></g><circle cx="1840.7" cy="13.284" r="229.22" fill="#fdf384"/><path d="m1785-139.35s-100.25 11.018-100.25 145.25c0 134.23 100.25 160.01 100.25 160.01" fill="none" stroke="#fbe815" stroke-width="7.02px"/><rect x="1336.1" y="316.73" width="115.95" height="503.06" fill="#a87b4f"/><path d="m1378 447.51c-0-5.02-4.076-9.096-9.096-9.096-5.021-0-9.096 4.076-9.096 9.096v207.78c-0 5.02 4.075 9.096 9.096 9.096 5.02-0 9.096-4.076 9.096-9.096v-207.78z" fill="#8e6843"/><path d="m1614.4 244.99c-0-54.695-44.406-99.1-99.1-99.1h-233.63c-54.694-0-99.1 44.405-99.1 99.1s44.406 99.1 99.1 99.1h233.63c54.694-0 99.1-44.405 99.1-99.1z" fill="#8fc740"/><path d="m1379.3 304.84c54.695-0 99.1-44.405 99.1-99.1v-123.52c0-54.695-44.405-99.1-99.1-99.1s-99.1 44.405-99.1 99.1v123.52c0 54.695 44.405 99.1 99.1 99.1z" fill="#8fc740"/><path d="m1457.5 255.06c0-9.248-7.508-16.756-16.756-16.756h-167.56c-9.248-0-16.756 7.508-16.756 16.756s7.508 16.756 16.756 16.756h167.56c9.248-0 16.756-7.508 16.756-16.756z" fill="#7bae33"/><path d="m1428.8 76.484c-0-7.926-6.436-14.362-14.363-14.362-7.926-0-14.362 6.436-14.362 14.362v4.788c0 7.927 6.436 14.362 14.362 14.362 7.927 0 14.363-6.435 14.363-14.362v-4.788z" fill="#7bae33"/><circle cx="1549.4" cy="253.62" r="16.277" fill="#7bae33"/><path d="m1030 789.39s1.483 28.057-1.003 41.86c-2.94 16.325-16.638 56.088-16.638 56.088s-5.461 25.947-6.05 33.377c-0.301 3.79 6.798 10.053 2.515 11.202-6.706 1.799-36.129 0.829-42.75-0.411-2.924-0.548 0.769-5.389 3.025-7.027 4.034-2.927 17.143-5.646 21.176-10.54 4.034-4.893 3.025-18.821 3.025-18.821l3.933-104.15 32.767-1.582z" fill="#fea37e"/><path d="m1032.8 789.4 3.388 43.812 14.146 62.169s6.67 17.391 6.988 23.082c0.22 3.944-6.522 8.538-5.082 11.067 1.44 2.53 8.878 3.756 13.722 4.111 5.993 0.439 21.007 0.966 22.235-1.476 1.228-2.441-12.219-7.606-14.866-13.175-2.647-5.568-1.016-20.237-1.016-20.237l1.136-35.078 0.963-75.254-41.614 0.979z" fill="#fea37e"/><path d="m1074 734.66s3.43 49.716-0.61 60.036c-0.889 2.272-41.889-5.3-41.889-5.3l-7.1-51.241 49.599-3.495z" fill="#c44f45"/><path d="m1025.3 742.92 6.494 46.472s-35.46 4.158-35.883 1.859c-1.838-9.975 4.067-56.354 4.067-56.354l25.322 8.023z" fill="#c44f45"/><path d="m1025.3 742.92 6.494 46.472" fill="none" stroke="#95372f" stroke-width=".4px"/><ellipse cx="1030.9" cy="584.45" rx="19.412" ry="20.259" fill="#fea37e"/><path d="m1028 584.98c0-2.938 2.385-5.323 5.323-5.323h10.644c2.937 0 5.322 2.385 5.322 5.323v39.996c0 2.937-2.385 5.322-5.322 5.322h-10.644c-2.938 0-5.323-2.385-5.323-5.322v-39.996z" fill="#fea37e"/><path d="m1052.1 617.95c8.678 2.425 24.361 7.077 25.649 10.001 5.506 12.494 14.722 41.33 13.594 62.875l-15.133 6.596-2.565 42.555s-29.069 3.689-41.552 3.192c-11.375-0.452-33.344-6.17-33.344-6.17l2.565-31.917-9.49-2.553c-1.411-24.611 6.412-60.252 12.055-73.834 2.572-6.19 21.802-7.66 21.802-7.66s18.09-5.412 26.419-3.085z" fill="#fea37e"/><path d="m991.86 702.52 0.206 55.574s-3.094 4.073-1.605 8.765c1.49 4.693 6.532 7.26 6.532 7.26s8.938-0.885 7.907-7.525c-1.031-6.641 0.229-5.224-1.833-10.182-2.063-4.958-2.063-21.205-2.063-21.205l0.458-31.165-9.602-1.522z" fill="#fea37e"/><path d="m1090.2 690.19-4.486 60.515s3.094 4.073 1.604 8.765-6.532 7.26-6.532 7.26-8.938-0.885-7.907-7.526c1.032-6.64-0.229-5.223 1.834-10.181 2.062-4.958 2.062-21.205 2.062-21.205l-0.458-31.165 13.883-6.463z" fill="#fea37e"/><path d="m1057.5 619.47s-3.308 10.696-4.932 15.613c-7.546 22.845-24.287 21.55-27.188-0.213-0.629-4.717-2.822-14.043-2.822-14.043l-10.003 2.127s-0.299 15.178-1.026 20.427c-0.523 3.777-2.855 7.284-3.334 11.064-1.967 15.498-10.901 80.146-8.465 81.919 15.088 10.979 70.194 5.532 72.332 2.766 10.825-14.008 0.119-63.432-1.36-79.598-0.439-4.802-3.348-10.621-4.103-18.396-0.553-5.7-0.693-19.245-0.693-19.245l-8.406-2.421z" fill="#e6e6e6"/></svg>
