<?xml version="1.0" encoding="UTF-8"?>
<!DOCTYPE svg  PUBLIC '-//W3C//DTD SVG 1.1//EN'  'http://www.w3.org/Graphics/SVG/1.1/DTD/svg11.dtd'>
<svg clip-rule="evenodd" fill-rule="evenodd" stroke-linejoin="round" stroke-miterlimit="2" version="1.1" viewBox="0 0 1920 1080" xml:space="preserve" xmlns="http://www.w3.org/2000/svg" xmlns:serif="http://www.serif.com/"><rect x="8.411" y="167.23" width="771.37" height="172.27" fill="#ce1126"/><rect x="8.411" y="338.65" width="771.37" height="172.27" fill="#fff"/><rect x="8.411" y="508.35" width="771.37" height="172.27"/><path d="m388.65 344.6 5e-3 -0.048s16.462-5.833 17.132 22.743c0.305 13.031 4.685 14.594 4.685 14.594s31.531-10.718 39.029-4.242c7.499 6.476 4.942 103.53 4.942 103.53l-32.039-27.949s3.181 17.17 7.328 23.347c4.139 6.166 15.594 9.587 17.554 13.72 1.785 3.765-1.653 10.614-5.795 11.077-16.531 1.846-67.194 7.899-93.391 0-5.087-1.534-8.228-7.403-6.306-11.248 2.159-4.317 15.082-8.748 19.258-14.656 4.152-5.876 5.794-20.792 5.794-20.792l-31.187 27.268 4.601-103.36s-0.71-14.542 37.834 2.216c7.652 3.327 8.827-17.212 9.812-28.027l-10.558-5.289 11.302-2.884z" fill="#c09300"/><g serif:id="Pyramide klein"><path d="m1381.7 359.61 369.35 491.49h-738.7l369.35-491.49z" fill="#f9de00"/><path d="m1381.9 359.8-116.84 491.31h-252.64l369.35-491.49 0.136 0.181z" fill="#d3bc00"/></g><g serif:id="Pyramide groß"><path d="m871.87 139.05 546.39 727.07h-1092.8l546.39-727.07z" fill="#f9de00"/><path d="m872.07 139.32-172.85 726.8h-373.74l546.39-727.07 0.201 0.267z" fill="#d3bc00"/></g><path d="m1368.3 622.32c-20.957 42.312-27.582 87.891-27.063 135.1 0-0 15.52-74.924 34.833-97.341s-7.77-37.76-7.77-37.76z" fill="#b77c3a"/><path d="m1672.2 688.4 13.752 0.598s-7.566 87.106-10.058 129.26c-2.434 41.182-6.129 119.12-4.89 123.66 1.093 4.017 15.446 2.99 19.134 7.176 3.687 4.185 4.783 15.147 2.989 17.938-1.793 2.79-9.315 0.02-13.752-1.196-6.179-1.695-23.32-8.969-23.32-8.969l0.598-130.35 15.547-138.12z" fill="#b77c3a"/><path d="m1615.4 692.99s18.815 83.671 21.501 126.36c2.686 42.659-5.281 103.84-5.381 129.75-0.033 8.717-2.691 21.326 4.784 25.711 7.474 4.385 33.285 3.189 40.061 0.598 5.03-1.924 3.986-12.258 0.598-16.145-3.388-3.886-19.904-6.246-20.928-7.175-1.415-1.284 4.186-147.09 4.186-147.09l11.959-116.6-27.505-26.309-29.275 30.901z" fill="#d59045"/><path d="m1681.4 557.3s8.7 11.702 14.525 25.8c13.379 32.38 36.915 70.165 85.741-43.763 5.606-13.08 66.334-14.949 66.334-14.949s-54.188 247.58-206.47 148.55c-152.29-99.033-6.54-79.413-6.54-79.413l46.414-36.225z" fill="#d59045"/><path d="m1490.9 703.68c-1.037 10.996-2.808 35.276-10.411 55.815-7.121 19.237-15.085 33.411-20.93 52.674-5.418 17.853 6.329 42.573 11.146 66.228 5.517 27.087 4.895 52.777 9.346 65.164 3.444 9.585 24.31 3.818 29.533 7.836 4.326 3.327 7.044 14.733 1.808 16.273-6.83 2.009-34.857-0.1-42.793-4.219-6.228-3.232-3.2-13.665-4.821-20.492-5.726-24.109-24.712-96.335-29.534-124.16-2.435-14.057-3.218-29.049 0.603-42.793 6.228-22.401 27.424-79.559 36.766-91.613 5.569-7.187 20.141 10.235 19.287 19.287z" fill="#b77c3a"/><path d="m1471.8 696.68c4.173 2.086-4.769 31.118-21.094 60.743-15.091 27.385-42.104 55.142-39.972 62.861 3.162 11.449 22.988 109.8 22.072 136.11-0.424 12.191 35.528-5.046 31.637 18.394-0.613 3.693-34.762 3.725-43.409 0.735-6.46-2.233-8.474-18.673-8.474-18.673s-23.786-87.911-29.232-132.96c-6.002-49.659-6.78-164.99-6.78-164.99l52.738-47.464 42.514 85.248z" fill="#d59045"/><path d="m1409.2 571.81c12.542 4.131 16.01 27.87 7.74 52.98-8.271 25.109-25.169 42.141-37.711 38.01-12.542-4.132-16.01-27.871-7.739-52.981 8.27-25.109 25.168-42.141 37.71-38.009z" fill="#d59045"/><ellipse cx="1537.3" cy="547.47" rx="89.04" ry="73.884" fill="#d59045"/><ellipse cx="1540.9" cy="636.06" rx="122.34" ry="73.884" fill="#d59045"/><path d="m1679.7 554.18c20.524 25.76 23.908 57.253 7.553 70.284s-46.296 2.697-66.82-23.062c-20.524-25.76-23.909-57.253-7.553-70.284 16.355-13.031 46.296-2.697 66.82 23.062z" fill="#d59045"/><path d="m1460.8 614.56c-17.142 28.123-45.556 42.119-63.412 31.235-17.857-10.884-18.436-42.553-1.294-70.676s45.556-42.12 63.413-31.236c17.856 10.884 18.435 42.553 1.293 70.677z" fill="#d59045"/><ellipse cx="1810.3" cy="511.89" rx="43.325" ry="37.182" fill="#d59045"/><ellipse cx="1849.1" cy="508.01" rx="45.265" ry="24.896" fill="#d59045"/><ellipse cx="1545.8" cy="673.89" rx="67.224" ry="23.123" fill="#b77c3a" serif:id="Akzent unten"/><ellipse cx="1537.6" cy="519.28" rx="60.328" ry="25.02" fill="#e1af78" serif:id="Akzent oben"/><ellipse cx="317.93" cy="776.48" rx="266.76" ry="171.07" fill="#e1af78"/><path d="m453.49 868.98c11.167-3.723 78.334-105.65 78.334-118.56" fill="#d59045"/><path d="m159.57 710.42c107.95 15.421 210.32 40.649 320.11 40.649" fill="#d59045"/><path d="m154.49 771.39c30.021 0 65.555-5.859 94.848 0 21.133 4.227 41.961 17.125 64.362 20.325 22.801 3.257 45.421 5.697 67.749 10.162 34.643 6.929 69.546 22.019 103.32 22.019" fill="#d59045"/><path d="m159.57 813.74c19.434 0 40.563-2.049 59.28 1.694 14.74 2.948 27.247 11.034 42.343 13.55 15.868 2.644 33.359-3.152 49.118-0 42.505 8.501 85.76 18.378 128.72 28.793" fill="#d59045"/><path d="m218.85 642.67c26.062 0 54.545 7.285 79.605 13.55 23.285 5.821 50.718-3.067 74.524 1.694 32.739 6.547 69.758 28.793 101.62 28.793" fill="#d59045"/><path d="m330.64 906.89c28.042-49.788 59.132-97.938 84.686-149.05 7.116-14.233 24.546-86.38 35.568-86.38" fill="#d59045"/><path d="m215.46 864.55c36.956-51.035 83.606-96.077 111.78-152.44 7.162-14.324 3.207-31.82 8.469-42.343 5.266-10.532 11.856-22.291 11.856-35.569" fill="#d59045"/><path d="m115.53 815.43c30.612-30.613 62.333-72.328 82.992-103.32 11.625-17.437 12.699-39.798 27.1-54.199" fill="#d59045"/></svg>
