<?xml version="1.0" encoding="UTF-8"?>
<!DOCTYPE svg  PUBLIC '-//W3C//DTD SVG 1.1//EN'  'http://www.w3.org/Graphics/SVG/1.1/DTD/svg11.dtd'>
<svg clip-rule="evenodd" fill-rule="evenodd" stroke-linecap="round" stroke-linejoin="round" stroke-miterlimit="1.5" version="1.1" viewBox="0 0 1920 1080" xml:space="preserve" xmlns="http://www.w3.org/2000/svg" xmlns:serif="http://www.serif.com/"><rect x="-56.495" y="-37.432" width="2022.2" height="1123.3" fill="#e6e6e6"/><rect x="-56.495" y="651.96" width="2022.2" height="433.89" fill="#c9b080"/><g serif:id="BEt mit Personen"><rect x="267.31" y="386" width="666.39" height="188.77" fill="#523b23"/><ellipse cx="568.46" cy="397.42" rx="146.62" ry="65.849" fill="#523b23"/><path d="m987.53 753.44h-826.87l111-198.06h604.88l111 198.06z" fill="#4d4d4d"/><rect x="162.59" y="753.29" width="825.57" height="81.091" fill="#595959"/><path d="m315.9 567.12 7.011-55.347-8.092-56.606c69.653 8.511 139.31 7.445 208.96-1.229-5.517 37.537-4.679 73.259 1.551 107.44-52.558-1.667-87.207-12.816-209.43 5.742z" fill="#efbb8f"/><path d="m614.74 559.38c3.992-36.581 0.382-70.99-7.375-104.21 69.654 8.511 139.31 7.445 208.96-1.229-8.384 34.417-8.849 68.834 1.229 103.25-103.86-1.179-178.67-0.827-202.82 2.191z" fill="#efbb8f"/><ellipse cx="420.16" cy="513.32" rx="39.469" ry="49.626" fill="#ebd9c0"/><g fill="#523b23"><rect x="152.04" y="830.52" width="848.13" height="109.09"/><rect x="151.52" y="915.38" width="22.153" height="92.639"/><rect x="978.82" y="915.38" width="22.153" height="92.639"/></g><path d="m924.38 596.39c14.28-2.312 59.323 192.94 43.559 208.12-26.235 25.249-155.29 87.839-232.68 85.055-40.746-1.466-61.441-49.329-57.713-68.922 1.012-5.319 1.781-32.429 2.896-66.321 2.174-66.126 5.666-158.07 14.85-164.38 1.879-1.291 18.52 7.746 44.635 8.576 64.445 2.051 175.56-0.683 184.45-2.123z" fill="#d9d9d9"/><path d="m680.34 754.15c36.848-31.613 241.2-9.475 288.23 1.411 4.685 1.084 8.719 37.957 0.261 48.942-26.03 33.805-173.77 86.332-235.73 84.284-31.62-1.045-51.638-34.852-56.02-60.005-4.137-23.743-0.693-71.236 3.266-74.632z" fill="#e6e6e6"/><g serif:id="Person wach"><path d="m1080 665.13c6.283-2.01 36.817 22.869 42.974 35.434 5.927 12.096-0.88 32.796-6.032 39.958-4.878 6.781-19.602 7.665-24.879 3.015-5.277-4.649-5.181-20.484-6.785-30.91-2.011-13.068-11.56-45.486-5.278-47.497z" fill="#ebd9c0"/><path d="m1091.6 896.48 46.441 42.822s14.475 11.46-5.428 16.888c-19.904 5.428-25.935 4.222-25.935 4.222s34.379 21.109-3.016 24.728c-37.394 3.619-88.54-31.207-91.073-34.378-4.992-6.251 33.653-71.984 33.653-71.984l45.358 17.702z" fill="#ebd9c0"/><path d="m817.77 647.23s-0.943 61.255 40.523 67.852c41.465 6.597 130.99 17.906 130.99 17.906s48.773 133.11 55.369 154.78c4.997 16.416 34.437 32.291 47.12 20.733 19.476-17.749 25.331-163.17 25.331-163.17s20.742-46.031-25.972-58.096c-61.312-15.837-271.01-117.26-273.36-40.004z" fill="#c0e1eb"/><path d="m1140 424.08c14.081 15.596 8.589 43.54-12.258 62.362s-49.204 21.441-63.286 5.844c-14.082-15.596-8.589-43.54 12.258-62.362 20.846-18.822 49.204-21.441 63.286-5.844z" fill="#ebd9c0"/><path d="m1051 465.42s-187.42-37.238-232.38 172.56c-1.385 6.464 12.178-12.826 54.92-9.024 65.678 5.843 185.7 51.33 210.57 60.761 1.552 0.589 0.432-15.987-1.71-20.303-0.596-1.199-0.654-1.317-0.989-1.972-13.487-26.342-97.284-24.159-23.51-152.55 20.404-35.512-6.902-49.467-6.902-49.467z" fill="#f6981d"/></g><path d="m455.83 562.98c2.478 5.153 12.129 12.128 12.129 12.128l-15.363 52.558-80.858-3.234-3.234-45.281s3.734-21.104 12.129-25.066c19.252-9.085 68.425-5.192 75.197 8.895z" fill="#ebd9c0"/><path d="m280.24 587.71s17.203 0.824 35.465-5.806c23.125-8.396 56.849-27.138 104.26-23.672 22.294 1.63 46.343 16.523 76.073 24.386 12.441 3.29 31.086 0.13 44.765 5.092 4.512 1.636 53.771 183.42 6.67 211.88-47.101 28.459-301.43-17.119-344.86-45.578s77.621-166.3 77.621-166.3z" fill="#f2f2f2"/><path d="m202.62 754.01c6.045-8.943 309.07-5.676 364.15-0 2.71 0.279-0.926 20.981-11.084 36.317-6.392 9.651-16.937 16.129-25.187 17.339-87.506 12.824-333.92-44.713-327.88-53.656z" fill="#fff"/><path d="m311.19 600.37s-8.893 61.364-0 103.16" fill="none" stroke="#d9d9d9" stroke-width=".97px"/><path d="m473.98 600.37s8.893 61.364 0 103.16" fill="none" stroke="#d9d9d9" stroke-width=".97px"/></g><circle cx="982.89" cy="194.42" r="110.37" fill="#fff"/><path d="m982.89 74.567c-66.147-0-119.85 53.703-119.85 119.85 0 66.147 53.703 119.85 119.85 119.85 66.146-0 119.85-53.703 119.85-119.85 0-66.146-53.703-119.85-119.85-119.85zm-0 9.48c60.914-0 110.37 49.455 110.37 110.37 0 60.915-49.455 110.37-110.37 110.37-60.915-0-110.37-49.455-110.37-110.37 0-60.914 49.455-110.37 110.37-110.37z"/><rect x="980" y="277.65" width="7.485" height="28.213"/><path d="m1071.5 192.1v7.485h28.213v-7.485h-28.213z"/><rect x="980" y="79.829" width="7.485" height="28.213"/><path d="m895.93 199.59v-7.485h-28.213v7.485h28.213z"/><path d="m1064.7 258.28 4.515-6.762-89.786-59.945-4.515 6.762 89.786 59.945z"/><path d="m1028.1 167.47-4.753-6.598-46.093 33.202 4.752 6.598 46.094-33.202z"/><circle cx="980.14" cy="197.3" r="6.676"/><rect x="-94.554" y="-104.05" width="2115" height="1275.3" fill="url(#b)"/><rect x="1371.9" y="118.71" width="343.41" height="532.59" fill="#02005f"/><clipPath id="a"><rect x="1371.9" y="118.71" width="343.41" height="532.59"/></clipPath><g clip-path="url(#a)"><path d="m1762.2 418.29-405.12-55.329-16.599 121.54 405.12 55.329 16.599-121.54z" fill="#505050"/><path d="m1567.6 439.67 363.49 38.075-3.964 37.849-363.49-38.076 3.964-37.848z" fill="#3b3b3b"/><path d="m1852.4 479.27c-16.722-1.752-31.721 10.403-33.473 27.125-1.751 16.722 10.403 31.721 27.125 33.473 16.723 1.751 31.721-10.403 33.473-27.125 1.752-16.723-10.403-31.721-27.125-33.473z"/><path d="m1780.3 471.72c-16.722-1.751-31.721 10.403-33.472 27.125-1.752 16.723 10.402 31.721 27.125 33.473 16.722 1.752 31.72-10.403 33.472-27.125s-10.403-31.721-27.125-33.473z"/><path d="m1603.9 453.25c-16.722-1.751-31.721 10.403-33.472 27.125-1.752 16.723 10.402 31.721 27.125 33.473 16.722 1.751 31.72-10.403 33.472-27.125 1.752-16.723-10.403-31.721-27.125-33.473z"/><path d="m1664.9 335.54-97.64-10.227-12.337 64.346-4.607 5.114-5.325 50.834 108.71 11.387 11.195-121.45z" fill="#da2049"/><path d="m1649.7 353.79c3.042 6.973-2.822 34.727-3.37 39.946-0.271 2.58-61.502-4.665-63.299-5.817-2.23-1.427 3.585-43.359 6.97-43.232 10.151 0.38 58.061 5.349 59.699 9.103z" fill="#72aaa9"/><path d="m1651.9 344.35c-0.126-0.321-0.516-0.759-1.285-1.116-1.083-0.501-3.152-1.064-5.91-1.627-10.671-2.18-31.965-4.55-45.114-4.799-4.014-0.076-7.282 0.05-9.288 0.426-1.031 0.193-1.772 0.475-2.198 0.787-0.791 0.579-1.616 1.868-2.369 3.794-1.563 3.997-3.031 10.927-4.327 19.274-3.426 22.068-5.696 54.107-5.672 67.522 5e-3 2.404 0.085 4.223 0.239 5.302 0.087 0.607 0.217 1.029 0.342 1.263 0.277 0.516 0.888 1.062 1.853 1.547 1.146 0.575 2.854 1.129 4.983 1.643 7.971 1.925 22.037 3.387 33.973 4.22 9.105 0.636 16.972 0.904 19.957 0.744 0.743-0.04 1.239-0.126 1.46-0.209 0.252-0.096 0.402-0.233 0.491-0.341 0.767-0.925 1.61-3.048 2.426-6.102 1.791-6.706 3.653-18.105 5.31-30.648 2.834-21.452 5.073-46.256 5.364-56.568 0.079-2.783-0.027-4.586-0.235-5.112zm-0.9 0.355c1.598 4.056-6.721 90.23-12.71 97.457-0.98 1.184-58.197-2.001-61.119-7.444-2.216-4.126 3.78-90.253 11.506-95.916 4.836-3.544 61.096 2.789 62.323 5.903z" fill="#a41437"/><path d="m1629.4 406 8.865 0.929-0.842 8.04-8.865-0.929 0.842-8.04z" fill="#a41437"/><path d="m1683.1 330.88 275.81 28.891-12.78 122-275.81-28.891 12.779-122z" fill="#a41437"/><path d="m1914.6 374.86c0.136-1.299 1.301-2.242 2.6-2.106l16.684 1.747c1.299 0.136 2.243 1.301 2.107 2.6l-8.206 78.339c-0.136 1.298-1.301 2.242-2.6 2.106l-16.684-1.748c-1.299-0.136-2.243-1.3-2.106-2.599l8.205-78.339z" fill="#700d26"/><path d="m1871.4 370.33c0.136-1.298 1.301-2.242 2.599-2.106l16.685 1.748c1.298 0.136 2.242 1.3 2.106 2.599l-8.206 78.339c-0.136 1.299-1.3 2.242-2.599 2.106l-16.685-1.747c-1.298-0.136-2.242-1.301-2.106-2.6l8.206-78.339z" fill="#700d26"/><path d="m1828.1 365.8c0.136-1.299 1.301-2.243 2.6-2.107l16.684 1.748c1.299 0.136 2.243 1.301 2.107 2.599l-8.206 78.339c-0.136 1.299-1.301 2.243-2.6 2.107l-16.684-1.748c-1.299-0.136-2.242-1.301-2.106-2.599l8.205-78.339z" fill="#700d26"/><path d="m1784.9 361.27c0.136-1.299 1.301-2.242 2.599-2.106l16.685 1.747c1.298 0.136 2.242 1.301 2.106 2.6l-8.206 78.339c-0.136 1.298-1.3 2.242-2.599 2.106l-16.684-1.748c-1.299-0.136-2.243-1.3-2.107-2.599l8.206-78.339z" fill="#700d26"/><path d="m1741.6 356.74c0.136-1.298 1.301-2.242 2.6-2.106l16.684 1.748c1.299 0.136 2.243 1.3 2.107 2.599l-8.206 78.339c-0.136 1.299-1.301 2.243-2.6 2.107l-16.684-1.748c-1.299-0.136-2.242-1.301-2.106-2.6l8.205-78.339z" fill="#700d26"/><path d="m1698.4 352.21c0.136-1.299 1.301-2.243 2.599-2.107l16.685 1.748c1.298 0.136 2.242 1.301 2.106 2.599l-8.206 78.339c-0.136 1.299-1.3 2.243-2.599 2.107l-16.684-1.748c-1.299-0.136-2.243-1.301-2.107-2.599l8.206-78.339z" fill="#700d26"/><g serif:id="Auto blau"><path d="m1288 450.24c3.72 1.49 171.42 24.667 208.53 28.48 5.035 0.518 11.91-1.042 14.116-5.598 3.382-6.983 7.88-32.639 6.172-36.3-4.898-10.502-20.511-23.047-31.107-29.982-17.278-11.308-62.258-14.005-85.156-12.844-18.597 0.944-34.583 15.912-52.231 19.814-17.503 3.87-40.234-2.258-50.288 3.814-9.56 5.773-13.095 31.392-10.038 32.616z" fill="#235ebe"/><path d="m1363.4 410.98c12.422-6.517 24.229-11.049 35.136-12.681l20.418 1.235-7.925 21.058c-15.707-1.656-31.545-4.511-47.629-9.612z" fill="#d5e2f7"/><path d="m1424.3 399.53c-3.024 7.559-3.495 14.839-3.208 22.035 10.921 2.118 22.043 3.657 34.371 1.711-0-0 2.98-7.018 2.779-10.161-0.2-3.143-3.982-8.698-3.982-8.698-10.059-2.502-20.108-4.876-29.96-4.887z" fill="#d5e2f7"/><path d="m1462.6 405.76c1.168 4.551 3.127 9.016 7.745 13.189 6.755-1.115 11.012-3.73 15.008-6.502l-22.753-6.687z" fill="#d5e2f7"/><path d="m1330.1 431.96c10.424 1.424 17.731 11.042 16.308 21.466-1.424 10.424-11.043 17.732-21.467 16.308s-17.731-11.043-16.307-21.467c1.423-10.424 11.042-17.731 21.466-16.307z"/><path d="m1470.5 451.13c10.424 1.424 17.731 11.042 16.307 21.467-1.423 10.424-11.042 17.731-21.466 16.307s-17.731-11.042-16.308-21.466c1.424-10.424 11.043-17.732 21.467-16.308z"/></g><rect x="1376.2" y="297.73" width="20.598" height="427.98" fill="#3b3b3b"/><ellipse cx="1450.4" cy="312.81" rx="29.489" ry="10.291" fill="#f2ff31"/><rect x="1377.3" y="298.22" width="112.43" height="11.98" fill="#3b3b3b"/><g serif:id="LAterne"><rect x="1610.5" y="277.79" width="20.598" height="427.98" fill="#3b3b3b"/><ellipse cx="1684.7" cy="292.88" rx="29.489" ry="10.291" fill="#f2ff31"/><rect x="1611.6" y="278.28" width="112.43" height="11.98" fill="#3b3b3b"/></g></g><path d="m1724.8 118.71c-0-5.235-4.245-9.48-9.48-9.48h-343.41c-5.235 0-9.48 4.245-9.48 9.48v532.59c0 5.236 4.245 9.48 9.48 9.48h343.41c5.235-0 9.48-4.244 9.48-9.48v-532.59zm-9.48 0h-343.41v532.59h343.41v-532.59z"/><defs><radialGradient id="b" cx="0" cy="0" r="1" gradientTransform="matrix(-283.66 -535.94 535.94 -283.66 1420.6 627.4)" gradientUnits="userSpaceOnUse"><stop stop-color="#020232" stop-opacity="0" offset="0"/><stop stop-color="#020232" stop-opacity=".12886" offset=".51"/><stop stop-color="#020232" stop-opacity=".53" offset="1"/></radialGradient></defs></svg>
