<?xml version="1.0" encoding="UTF-8"?>
<!DOCTYPE svg  PUBLIC '-//W3C//DTD SVG 1.1//EN'  'http://www.w3.org/Graphics/SVG/1.1/DTD/svg11.dtd'>
<svg clip-rule="evenodd" fill-rule="evenodd" stroke-linecap="round" stroke-linejoin="round" stroke-miterlimit="1.5" version="1.1" viewBox="0 0 1920 1080" xml:space="preserve" xmlns="http://www.w3.org/2000/svg" xmlns:serif="http://www.serif.com/"><rect x="1378.8" y="72.419" width="427.39" height="568.51" fill="none"/><clipPath id="b"><rect x="1378.8" y="72.419" width="427.39" height="568.51"/></clipPath><g clip-path="url(#b)"><g fill="none" stroke="#fbe815" stroke-width="7.02px"><path d="m1550.8 103.59-112.64-52.941"/><path d="m1582.4 36.008-91.239-95.744"/><path d="m1652.2-4.542-70.964-138.55"/><path d="m1857.2-5.669 58.573-82.227"/><path d="m1919.2 34.882 91.238-58.573"/><path d="m1920.3 335.63 97.997 100.25"/><path d="m1855 388.57 56.32 119.4"/><path d="m1777.2 414.48 14.643 104.76"/><path d="m1698.4 405.47-27.033 114.89"/><path d="m1624 373.93-77.722 111.51"/><path d="m1572.2 323.24-67.584 42.804"/><path d="m1538.4 239.89-150.94 54.067"/><path d="m1523.8 173.43-130.66-16.896"/></g><circle cx="1755.3" cy="187.71" r="229.22" fill="#fdf384"/><path d="m1699.5 35.075s-100.25 11.018-100.25 145.25c0 134.23 100.25 160.01 100.25 160.01" fill="none" stroke="#fbe815" stroke-width="7.02px"/></g><path d="m1811.4 72.419c-0-2.903-2.354-5.256-5.256-5.256h-427.39c-2.903-0-5.256 2.353-5.256 5.256v568.51c0 2.903 2.353 5.256 5.256 5.256h427.39c2.902 0 5.256-2.353 5.256-5.256v-568.51zm-5.256-0h-427.39v568.51h427.39v-568.51z"/><path d="m1378.8 358.69h427.39" fill="none" stroke="#000" stroke-width="5.26px"/><path d="m1584.4 72.419v568.51" fill="none" stroke="#000" stroke-width="5.26px"/><path d="m681.26 83.144c-0-14.821-12.033-26.853-26.853-26.853h-528.91c-14.82 0-26.853 12.032-26.853 26.853v170.07c0 14.821 12.033 26.853 26.853 26.853h528.91c14.82 0 26.853-12.032 26.853-26.853v-170.07z" fill="#e7e7e7"/><path d="m682.3 83.144c-0-15.39-12.495-27.885-27.885-27.885h-528.91c-15.39 0-27.885 12.495-27.885 27.885v170.07c0 15.39 12.495 27.885 27.885 27.885h528.91c15.39 0 27.885-12.495 27.885-27.885v-170.07zm-1.032-0c-0-14.821-12.033-26.853-26.853-26.853h-528.91c-14.82 0-26.853 12.032-26.853 26.853v170.07c0 14.821 12.033 26.853 26.853 26.853h528.91c14.82 0 26.853-12.032 26.853-26.853v-170.07z" fill="#4d4d4d"/><path d="m634.9 213.54c0-2.225-1.807-4.032-4.032-4.032h-483.84c-2.225-0-4.032 1.807-4.032 4.032v8.064c0 2.225 1.807 4.032 4.032 4.032h483.84c2.225-0 4.032-1.807 4.032-4.032v-8.064z" fill="#d0d0d0"/><path d="m634.9 171.2c0-2.225-1.807-4.032-4.032-4.032h-483.84c-2.225 0-4.032 1.807-4.032 4.032v8.064c0 2.225 1.807 4.032 4.032 4.032h483.84c2.225 0 4.032-1.807 4.032-4.032v-8.064z" fill="#d0d0d0"/><path d="m634.9 122.82c0-2.226-1.807-4.032-4.032-4.032h-483.84c-2.225-0-4.032 1.806-4.032 4.032v8.064c0 2.225 1.807 4.031 4.032 4.031h483.84c2.225 0 4.032-1.806 4.032-4.031v-8.064z" fill="#d0d0d0"/><path d="m407.64 728.46c0-14.238-11.559-25.798-25.798-25.798h-235.05c-14.238-0-25.798 11.56-25.798 25.798v310.65c-0 14.238 11.56 25.798 25.798 25.798h235.05c14.239-0 25.798-11.56 25.798-25.798v-310.65z" fill="#807154"/><path d="m387.61 760.99c-0-4.32-3.507-7.827-7.827-7.827h-220.22c-4.32 0-7.826 3.507-7.826 7.827v1.739c-0 4.32 3.506 7.827 7.826 7.827h220.22c4.32-0 7.827-3.507 7.827-7.827v-1.739z" fill="#262626"/><path d="m387.61 840.02c-0-4.319-3.507-7.826-7.827-7.826h-220.22c-4.32-0-7.826 3.507-7.826 7.826v1.74c-0 4.319 3.506 7.826 7.826 7.826h220.22c4.32 0 7.827-3.507 7.827-7.826v-1.74z" fill="#262626"/><path d="m387.61 919.05c-0-4.32-3.507-7.827-7.827-7.827h-220.22c-4.32 0-7.826 3.507-7.826 7.827v1.739c-0 4.32 3.506 7.827 7.826 7.827h220.22c4.32-0 7.827-3.507 7.827-7.827v-1.739z" fill="#262626"/><path d="m387.61 998.07c-0-4.32-3.507-7.827-7.827-7.827h-220.22c-4.32 0-7.826 3.507-7.826 7.827v1.739c-0 4.319 3.506 7.826 7.826 7.826h220.22c4.32 0 7.827-3.507 7.827-7.826v-1.739z" fill="#262626"/><g serif:id="Schubladenelement"><path d="m1378.5 728.46c0-14.238-11.56-25.798-25.798-25.798h-235.05c-14.239-0-25.798 11.56-25.798 25.798v310.65c-0 14.238 11.559 25.798 25.798 25.798h235.05c14.238-0 25.798-11.56 25.798-25.798v-310.65z" fill="#807154"/><path d="m1358.5 760.99c0-4.32-3.507-7.827-7.826-7.827h-220.22c-4.32 0-7.827 3.507-7.827 7.827v1.739c0 4.32 3.507 7.827 7.827 7.827h220.22c4.319-0 7.826-3.507 7.826-7.827v-1.739z" fill="#262626"/><path d="m1358.5 840.02c0-4.319-3.507-7.826-7.826-7.826h-220.22c-4.32-0-7.827 3.507-7.827 7.826v1.74c0 4.319 3.507 7.826 7.827 7.826h220.22c4.319 0 7.826-3.507 7.826-7.826v-1.74z" fill="#262626"/><path d="m1358.5 919.05c0-4.32-3.507-7.827-7.826-7.827h-220.22c-4.32 0-7.827 3.507-7.827 7.827v1.739c0 4.32 3.507 7.827 7.827 7.827h220.22c4.319-0 7.826-3.507 7.826-7.827v-1.739z" fill="#262626"/><path d="m1358.5 998.07c0-4.32-3.507-7.827-7.826-7.827h-220.22c-4.32 0-7.827 3.507-7.827 7.827v1.739c0 4.319 3.507 7.826 7.827 7.826h220.22c4.319 0 7.826-3.507 7.826-7.826v-1.739z" fill="#262626"/></g><rect x="121.09" y="684.44" width="1257.1" height="46.768" fill="#807154"/><rect x="502.9" y="371.66" width="432.27" height="216.88" fill="#f2f2f2"/><path d="m942.9 371.66c0-4.264-3.456-7.72-7.72-7.72h-432.27c-4.264 0-7.72 3.456-7.72 7.72v216.88c-0 4.263 3.456 7.72 7.72 7.72h432.27c4.264-0 7.72-3.457 7.72-7.72v-216.88zm-7.72 0h-432.27v216.88h432.27v-216.88z" fill="#595959"/><rect x="535.1" y="398.98" width="212.89" height="116.12" fill="#404040"/><clipPath id="a"><rect x="535.1" y="398.98" width="212.89" height="116.12"/></clipPath><g clip-path="url(#a)"><rect x="597" y="428.13" width="88.784" height="121.76" fill="#f2f2f2"/><g fill="none" stroke="#000" stroke-width="2.44px" serif:id="^TExt"><path d="m605.46 450.54h59.19"/><path d="m605.46 458.15h59.19"/><path d="m605.46 467.03h59.19"/><path d="m605.46 475.91h59.19"/><path d="m605.46 484.79h59.19"/><path d="m605.46 493.66h59.19"/><path d="m605.46 502.54h59.19"/><path d="m605.46 511.42h59.19"/></g></g><path d="m750.43 398.98c-0-1.348-1.092-2.44-2.44-2.44h-212.89c-1.347-0-2.44 1.092-2.44 2.44v116.12c0 1.347 1.093 2.44 2.44 2.44h212.89c1.348-0 2.44-1.093 2.44-2.44v-116.12zm-2.44-0h-212.89v116.12h212.89v-116.12z" fill="#400000"/><rect x="535.1" y="398.98" width="212.89" height="17.741" fill="#ff7aae"/><path d="m750.43 398.98c-0-1.348-1.092-2.44-2.44-2.44h-212.89c-1.347-0-2.44 1.092-2.44 2.44v17.741c0 1.347 1.093 2.44 2.44 2.44h212.89c1.348-0 2.44-1.093 2.44-2.44v-17.741zm-2.44-0h-212.89v17.741h212.89v-17.741z" fill="#400000"/><path d="m605.03 438.28h36.359" fill="none" stroke="#000" stroke-width="2.44px"/><rect x="694.6" y="594.69" width="42.919" height="17.525" fill="#595959"/><rect x="644.6" y="605.33" width="142.92" height="17.525" fill="#595959"/><path d="m507.68 686.06v-59.673h424.16v58.06" fill="none" stroke="#400000" stroke-width="13.89px"/><g fill="#4d4d4d"><rect x="1034.8" y="647.55" width="113.98" height="37.11"/><rect x="1055.3" y="614.65" width="72.894" height="34.459"/></g><path d="m1104 449.82c-0-5.24-4.248-9.489-9.489-9.489h-1e-3c-5.24 0-9.489 4.249-9.489 9.489v171.42h18.979v-171.42z" fill="#fff" stroke="#000" stroke-width="2.68px"/><circle cx="1094.2" cy="619.86" r="20.05" fill="#fff" stroke="#000" stroke-width="2.68px"/><rect x="1086.3" y="598.23" width="16.276" height="5.469" fill="#fff"/><path d="m1098 496.31c-0-2.11-0.412-4.133-1.146-5.625s-1.729-2.331-2.766-2.331h-1e-3c-1.037 0-2.033 0.839-2.766 2.331-0.734 1.492-1.146 3.515-1.146 5.625v119.92h7.825v-119.92z" fill="#b30000"/><circle cx="1093.6" cy="616.59" r="13.142" fill="#b30000"/><path d="m1103.4 597.88h-7.652" fill="none" stroke="#0d0d0d" stroke-linecap="butt" stroke-width="1.66px"/><path d="m1103.4 551.8h-7.652" fill="none" stroke="#0d0d0d" stroke-linecap="butt" stroke-width="1.66px"/><path d="m1103.4 561.01h-7.652" fill="none" stroke="#0d0d0d" stroke-linecap="butt" stroke-width="1.66px"/><path d="m1103.4 570.23h-7.652" fill="none" stroke="#0d0d0d" stroke-linecap="butt" stroke-width="1.66px"/><path d="m1103.4 579.44h-7.652" fill="none" stroke="#0d0d0d" stroke-linecap="butt" stroke-width="1.66px"/><path d="m1103.4 588.66h-7.652" fill="none" stroke="#0d0d0d" stroke-linecap="butt" stroke-width="1.66px"/><path d="m1103.4 542.58h-7.652" fill="none" stroke="#0d0d0d" stroke-linecap="butt" stroke-width="1.66px"/><path d="m1103.4 533.36h-7.652" fill="none" stroke="#0d0d0d" stroke-linecap="butt" stroke-width="1.66px"/><path d="m1103.4 524.14h-7.652" fill="none" stroke="#0d0d0d" stroke-linecap="butt" stroke-width="1.66px"/><path d="m1103.4 514.93h-7.652" fill="none" stroke="#0d0d0d" stroke-linecap="butt" stroke-width="1.66px"/><path d="m1103.4 505.71h-7.652" fill="none" stroke="#0d0d0d" stroke-linecap="butt" stroke-width="1.66px"/><path d="m1103.4 496.49h-7.652" fill="none" stroke="#0d0d0d" stroke-linecap="butt" stroke-width="1.66px"/><path d="m1103.4 487.28h-7.652" fill="none" stroke="#0d0d0d" stroke-linecap="butt" stroke-width="1.66px"/><path d="m1103.4 478.06h-7.652" fill="none" stroke="#0d0d0d" stroke-linecap="butt" stroke-width="1.66px"/><path d="m1103.4 468.84h-7.652" fill="none" stroke="#0d0d0d" stroke-linecap="butt" stroke-width="1.66px"/><path d="m1103.4 459.63h-7.652" fill="none" stroke="#0d0d0d" stroke-linecap="butt" stroke-width="1.66px"/><path d="m1103.4 450.41h-7.652" fill="none" stroke="#0d0d0d" stroke-linecap="butt" stroke-width="1.66px"/><text x="145.601px" y="263.265px" font-family="'Bahnschrift', sans-serif" font-size="29.175px">A<tspan x="163.351px " y="263.265px ">C</tspan></text></svg>
