<?xml version="1.0" encoding="UTF-8" standalone="no"?><!DOCTYPE svg PUBLIC "-//W3C//DTD SVG 1.1//EN" "http://www.w3.org/Graphics/SVG/1.1/DTD/svg11.dtd"><svg width="100%" height="100%" viewBox="0 0 1920 1080" version="1.1" xmlns="http://www.w3.org/2000/svg" xmlns:xlink="http://www.w3.org/1999/xlink" xml:space="preserve" xmlns:serif="http://www.serif.com/" style="fill-rule:evenodd;clip-rule:evenodd;stroke-linecap:round;stroke-linejoin:round;stroke-miterlimit:1.5;"><g id="TV-Set" serif:id="TV Set"><g id="TV-Schrank" serif:id="TV Schrank"><path d="M214.03,591.858c0.881,-2.884 -0.745,-5.942 -3.629,-6.824l-12.271,-3.75c-2.885,-0.882 -5.943,0.744 -6.824,3.629l-26.958,88.202c-0.882,2.885 0.744,5.942 3.629,6.824l12.271,3.75c2.885,0.882 5.942,-0.744 6.824,-3.629l26.958,-88.202Z" style="fill:#1a1a1a;"/><path d="M809.485,586.632l22.724,-6.946l30.153,98.656l-22.724,6.945l-30.153,-98.655Z" style="fill:#1a1a1a;"/><path d="M873.291,451.783c0,-8.475 -6.88,-15.355 -15.355,-15.355l-701.33,-0c-8.474,-0 -15.355,6.88 -15.355,15.355l0,139.901c0,8.474 6.881,15.355 15.355,15.355l701.33,-0c8.475,-0 15.355,-6.881 15.355,-15.355l0,-139.901Z" style="fill:#823600;"/><circle cx="367.639" cy="502.289" r="9.073" style="fill:#dbbf50;"/><circle cx="639.432" cy="503.902" r="9.073" style="fill:#dbbf50;"/><path d="M833.209,466.601c-0,-2.903 -2.353,-5.256 -5.256,-5.256l-648.432,-0c-2.903,-0 -5.256,2.353 -5.256,5.256l0,106.459c0,2.902 2.353,5.256 5.256,5.256l648.432,-0c2.903,-0 5.256,-2.354 5.256,-5.256l-0,-106.459Zm-5.256,-0l-648.432,-0l0,106.459l648.432,-0l-0,-106.459Z" style="fill:#692b00;"/></g><g id="TV"><rect x="223.264" y="107.249" width="568.123" height="285.031" style="fill:#f2f2f2;"/><clipPath id="_clip1"><rect x="223.264" y="107.249" width="568.123" height="285.031"/></clipPath><g clip-path="url(#_clip1)"><rect x="190.815" y="288.222" width="633.982" height="124.622" style="fill:#e7c797;"/></g><path d="M799.108,107.249c-0,-4.264 -3.457,-7.72 -7.72,-7.72l-568.124,-0c-4.263,-0 -7.72,3.456 -7.72,7.72l0,285.031c0,4.264 3.457,7.72 7.72,7.72l568.124,0c4.263,0 7.72,-3.456 7.72,-7.72l-0,-285.031Zm-7.72,-0l-568.124,-0l0,285.031l568.124,0l-0,-285.031Z" style="fill:#595959;"/><rect x="475.209" y="400.367" width="56.407" height="23.032" style="fill:#595959;"/><rect x="409.496" y="414.356" width="187.831" height="23.032" style="fill:#595959;"/><path d="M752.032,370.188l-481.76,-0l63.865,-66.911l354.03,-0l63.865,66.911Z" style="fill:#5c1019;"/><g id="Mensch"><g id="Knöchel"><path d="M395.422,210.497c-1.381,4.878 2.824,10.345 9.384,12.202c6.56,1.857 13.007,-0.596 14.387,-5.474c1.381,-4.878 -2.824,-10.346 -9.384,-12.202c-6.56,-1.857 -13.007,0.596 -14.387,5.474Z" style="fill:#823600;"/><path d="M370.262,263.655c-2.067,4.629 1.309,10.644 7.534,13.424c6.225,2.78 12.957,1.279 15.024,-3.35c2.067,-4.629 -1.308,-10.644 -7.534,-13.424c-6.225,-2.78 -12.957,-1.279 -15.024,3.35Z" style="fill:#823600;"/></g><g id="Hände"><g id="Schuhe"><g id="Hose"><path d="M471.012,247.459c3.464,-2.647 8.425,-1.983 11.072,1.481l44.369,58.069c2.647,3.464 1.983,8.425 -1.481,11.072l-12.553,9.591c-3.464,2.647 -8.425,1.983 -11.072,-1.481l-44.369,-58.069c-2.647,-3.464 -1.983,-8.425 1.481,-11.072l12.553,-9.591Z" style="fill:#716dcc;"/><path d="M445.679,290.783c2.116,-3.811 6.928,-5.187 10.74,-3.071l63.892,35.474c3.811,2.116 5.188,6.929 3.071,10.74l-7.668,13.812c-2.116,3.811 -6.929,5.187 -10.74,3.071l-63.892,-35.474c-3.812,-2.116 -5.188,-6.929 -3.072,-10.74l7.669,-13.812Z" style="fill:#716dcc;"/><path d="M386.202,266.101c2.002,-3.772 6.408,-4.597 10.18,-2.595l59.105,23.993c3.772,2.002 5.209,6.69 3.208,10.462l-7.254,13.669c-2.001,3.772 -6.689,5.21 -10.461,3.208l-54.279,-33.838c-3.772,-2.001 -6.66,-3.016 -4.659,-6.788l4.16,-8.111Z" style="fill:#716dcc;"/><path d="M511.965,319.683c10.76,-8.107 23.677,-9.139 28.828,-2.303c5.15,6.837 0.595,18.968 -10.165,27.075c-10.76,8.107 -23.677,9.138 -28.828,2.302c-5.15,-6.836 -0.595,-18.968 10.165,-27.074Z" style="fill:#716dcc;"/><path d="M413.322,209.903c2.831,-3.197 7.308,-2.964 10.505,-0.132l51.816,37.203c3.197,2.832 3.493,7.726 0.661,10.923l-10.261,11.583c-2.831,3.197 -7.725,3.493 -10.922,0.661l-44.813,-45.639c-3.197,-2.831 -5.766,-4.496 -2.934,-7.692l5.948,-6.907Z" style="fill:#716dcc;"/></g><path d="M383.077,259.358c0,0 -16.36,-14.977 -20.486,-21.523c-3.245,-5.148 -1.844,-14.754 -4.269,-17.751c-2.155,-2.664 -9.751,-3.615 -10.277,-0.229c-1.366,8.789 -1.883,43.194 2.079,52.963c2.809,6.925 21.693,5.65 21.693,5.65l11.26,-19.11Z"/><path d="M409.348,203.966c0.06,-6.681 -10.694,-27.723 -10.694,-27.723c0,0 3.94,-14.337 2.847,-18.034c-0.972,-3.285 -7.555,-7.025 -9.408,-4.143c-4.998,7.773 -21.617,40.404 -20.583,50.781c0.963,9.666 20.479,11.629 26.785,11.482c5.527,-0.128 11.003,-6.835 11.053,-12.363Z"/></g><path d="M428.352,214.57c-2.172,5.212 1.523,11.718 8.247,14.52c6.723,2.801 13.944,0.845 16.116,-4.367c2.172,-5.212 -1.523,-11.718 -8.246,-14.52c-6.723,-2.802 -13.945,-0.845 -16.117,4.367Z" style="fill:#823600;"/><path d="M450.249,194.164c0.965,-5.563 -5.635,-11.36 -14.73,-12.938c-9.094,-1.578 -17.262,1.658 -18.227,7.221c-0.965,5.563 5.635,11.361 14.73,12.939c9.095,1.577 17.262,-1.658 18.227,-7.222Z" style="fill:#823600;"/></g><g id="Oberteil"><path d="M443.508,201.654c-2.435,-1.296 -3.359,-4.325 -2.064,-6.759l4.696,-8.824c1.296,-2.434 4.325,-3.359 6.759,-2.063l50.966,27.123c2.435,1.296 3.359,4.325 2.064,6.76l-4.696,8.823c-1.296,2.434 -4.325,3.359 -6.759,2.063l-50.966,-27.123Z" style="fill:#823600;"/><path d="M445.869,233.253c-2.435,-1.296 -3.359,-4.325 -2.064,-6.759l4.696,-8.824c1.296,-2.434 4.325,-3.359 6.759,-2.063l50.966,27.123c2.434,1.296 3.359,4.325 2.063,6.76l-4.695,8.823c-1.296,2.435 -4.325,3.359 -6.76,2.063l-50.965,-27.123Z" style="fill:#823600;"/><path d="M490.741,229.702c-2.914,-1.196 -4.308,-4.532 -3.112,-7.446l4.334,-10.559c1.196,-2.914 4.533,-4.308 7.446,-3.112l52.562,21.575c2.914,1.196 4.309,4.532 3.113,7.446l-4.335,10.559c-1.196,2.914 -4.532,4.308 -7.446,3.112l-52.562,-21.575Z" style="fill:#823600;"/><g id="Rumpf"><path d="M536.765,239.557c4.413,-6.666 13.408,-8.495 20.074,-4.082l24.157,15.993c6.666,4.413 8.495,13.408 4.082,20.075l-42.341,63.954c-4.414,6.666 -13.409,8.495 -20.075,4.081l-24.156,-15.993c-6.667,-4.413 -8.496,-13.408 -4.082,-20.074l42.341,-63.954Z" style="fill:#9edff1;"/><path d="M583.59,255.505c-6.135,-4.056 -21.372,8.167 -34.006,27.277c-12.633,19.111 -17.909,37.919 -11.774,41.975c6.135,4.055 21.373,-8.167 34.006,-27.278c12.633,-19.111 17.909,-37.919 11.774,-41.974Z" style="fill:#9edff1;"/><path d="M548.438,234.434c-6.135,-4.055 -21.372,8.168 -34.006,27.278c-12.633,19.111 -17.909,37.919 -11.774,41.974c6.135,4.056 21.373,-8.167 34.006,-27.277c12.633,-19.111 17.909,-37.919 11.774,-41.975Z" style="fill:#9edff1;"/></g></g><g id="Kopf"><path d="M566.871,235.241c0.754,-2.357 3.28,-3.659 5.638,-2.906l3.322,1.063c2.358,0.754 3.66,3.28 2.906,5.637l-2.872,8.986c-0.754,2.357 -3.28,3.66 -5.638,2.906l-3.323,-1.063c-2.357,-0.753 -3.66,-3.28 -2.906,-5.637l2.873,-8.986Z" style="fill:#823600;"/><path d="M589.815,193.594c-10.574,-4.763 -23.991,2.1 -29.944,15.315c-5.952,13.215 -2.2,27.811 8.374,32.573c10.574,4.763 23.991,-2.099 29.944,-15.314c5.952,-13.215 2.2,-27.811 -8.374,-32.574Z" style="fill:#823600;"/></g><path d="M500.544,260.646c-2.704,-0.544 -4.457,-3.181 -3.913,-5.885l1.972,-9.798c0.545,-2.704 3.182,-4.458 5.886,-3.913l64.295,12.942c2.704,0.545 4.457,3.182 3.913,5.886l-1.972,9.798c-0.545,2.704 -3.182,4.457 -5.886,3.913l-64.295,-12.943Z" style="fill:#823600;"/><clipPath id="_clip2"><path d="M500.544,260.646c-2.704,-0.544 -4.457,-3.181 -3.913,-5.885l1.972,-9.798c0.545,-2.704 3.182,-4.458 5.886,-3.913l64.295,12.942c2.704,0.545 4.457,3.182 3.913,5.886l-1.972,9.798c-0.545,2.704 -3.182,4.457 -5.886,3.913l-64.295,-12.943Z"/></clipPath><g clip-path="url(#_clip2)"><path d="M552.947,369.724c-2.684,4.343 -8.661,6.381 -13.337,4.55l-16.947,-6.636c-4.677,-1.831 -6.294,-6.844 -3.609,-11.186l27.345,-44.231c2.684,-4.343 8.66,-6.382 13.337,-4.55l16.947,6.636c4.676,1.831 6.294,6.844 3.609,11.186l-27.345,44.231Z" style="fill:#ffb988;"/></g></g></g></g><g id="echt"><path d="M1902.72,982.78l-1350.87,0l186.951,-182.219l976.97,-0l186.951,182.219Z" style="fill:#a8cca6;"/><g id="Mensch1" serif:id="Mensch"><g id="Knöchel1" serif:id="Knöchel"><path d="M995.574,554.639c-4.031,14.24 8.245,30.202 27.396,35.622c19.15,5.419 37.97,-1.741 42,-15.981c4.03,-14.24 -8.246,-30.202 -27.396,-35.622c-19.151,-5.419 -37.97,1.741 -42,15.981Z" style="fill:#ffa667;"/><path d="M942.068,668.989c-6.035,13.513 3.82,31.072 21.993,39.187c18.174,8.116 37.827,3.733 43.861,-9.78c6.035,-13.513 -3.821,-31.073 -21.994,-39.188c-18.173,-8.115 -37.826,-3.733 -43.86,9.781Z" style="fill:#ffb988;"/></g><g id="Hände1" serif:id="Hände"><g id="Schuhe1" serif:id="Schuhe"><g id="Hose1" serif:id="Hose"><path d="M1240.94,624.556c10.112,-7.727 24.595,-5.79 32.322,4.322l129.527,169.522c7.727,10.113 5.79,24.596 -4.323,32.323l-36.645,28c-10.112,7.726 -24.596,5.789 -32.322,-4.323l-129.528,-169.522c-7.726,-10.113 -5.789,-24.596 4.323,-32.323l36.646,-27.999Z" style="fill:#716dcc;"/><path d="M1166.98,751.033c6.177,-11.127 20.226,-15.145 31.353,-8.967l186.521,103.561c11.127,6.178 15.144,20.227 8.967,31.353l-22.387,40.32c-6.178,11.127 -20.227,15.145 -31.353,8.967l-186.521,-103.561c-11.127,-6.178 -15.145,-20.227 -8.967,-31.353l22.387,-40.32Z" style="fill:#716dcc;"/><path d="M993.349,678.978c5.844,-11.012 18.708,-13.421 29.72,-7.577l172.545,70.045c11.012,5.843 15.208,19.528 9.364,30.54l-21.175,39.905c-5.843,11.012 -19.528,15.209 -30.54,9.365l-158.456,-98.783c-11.012,-5.843 -19.444,-8.805 -13.601,-19.817l12.143,-23.678Z" style="fill:#ffb988;"/><path d="M1360.49,835.399c31.412,-23.666 69.122,-26.678 84.157,-6.721c15.036,19.957 1.74,55.373 -29.673,79.039c-31.412,23.666 -69.122,26.677 -84.157,6.721c-15.035,-19.957 -1.739,-55.373 29.673,-79.039Z" style="fill:#716dcc;"/><path d="M1043.7,556.732c5.504,-11.186 18.288,-13.988 29.474,-8.484l174.609,64.728c11.186,5.504 15.799,19.053 10.295,30.239l-19.943,40.535c-5.504,11.186 -19.053,15.799 -30.239,10.296l-161.407,-93.885c-11.186,-5.503 -19.705,-8.205 -14.201,-19.391l11.412,-24.038Z" style="fill:#ffa667;"/></g><path d="M1026.24,673.101c-0,0 -64.565,-34.459 -82.585,-53.579c-8.2,-8.701 -15.461,-17.085 -19.227,-23.061c-9.474,-15.03 -5.385,-43.072 -12.463,-51.82c-6.291,-7.777 -28.466,-10.554 -30.002,-0.669c-3.989,25.657 -11.007,126.511 6.07,154.615c16.859,27.747 96.39,14.01 96.39,14.01l41.817,-39.496Z" style="fill:#ffb988;"/><path d="M1062.96,546.336c-20.71,1.475 -53.393,-11.562 -67.339,-36.362c-8.512,-15.137 2.329,-35.815 4.119,-44.79c2.394,-12.003 9.865,-31.379 6.545,-36.682c-3.321,-5.302 -21.457,-2.576 -26.467,4.865c-13.261,19.698 -58.785,88.202 -53.104,113.324c5.681,25.123 64.482,37.47 87.189,37.41c4.319,-0.011 26.944,15.781 32.58,13.093c21.295,-10.156 29.204,-51.764 16.477,-50.858Z" style="fill:#ffa667;"/></g><path d="M1072.71,542.787c-6.341,15.215 4.446,34.209 24.074,42.388c19.627,8.179 40.709,2.467 47.05,-12.748c6.34,-15.215 -4.447,-34.208 -24.074,-42.387c-19.627,-8.18 -40.709,-2.468 -47.05,12.747Z" style="fill:#ffb988;"/><path d="M1163.23,489.865c2.818,-16.241 -16.45,-33.165 -43.001,-37.771c-26.551,-4.606 -50.394,4.84 -53.211,21.08c-2.817,16.241 16.451,33.166 43.001,37.772c26.551,4.606 50.394,-4.84 53.211,-21.081Z" style="fill:#ffa667;"/></g><g id="Oberteil1" serif:id="Oberteil"><path d="M1110.48,508.094c-7.558,-2.775 -11.441,-11.165 -8.666,-18.723l10.058,-27.39c2.775,-7.559 11.165,-11.442 18.723,-8.666l158.213,58.095c7.558,2.775 11.442,11.165 8.666,18.723l-10.057,27.39c-2.776,7.559 -11.165,11.442 -18.724,8.666l-158.213,-58.095Z" style="fill:#ffa667;"/><path d="M1100.07,582.412c-7.524,-2.866 -11.306,-11.301 -8.44,-18.826l10.385,-27.267c2.866,-7.525 11.302,-11.307 18.827,-8.441l157.503,59.992c7.525,2.866 11.307,11.302 8.441,18.826l-10.386,27.267c-2.866,7.525 -11.302,11.307 -18.826,8.441l-157.504,-59.992Z" style="fill:#ffb988;"/><path d="M1258.27,570.354c-8.904,-2.296 -14.269,-11.389 -11.973,-20.292l8.319,-32.265c2.296,-8.904 11.388,-14.269 20.292,-11.973l160.615,41.413c8.904,2.296 14.269,11.388 11.973,20.292l-8.319,32.265c-2.296,8.903 -11.389,14.268 -20.292,11.973l-160.615,-41.413Z" style="fill:#ffa667;"/><g id="Rumpf1" serif:id="Rumpf"><path d="M1395.3,580.482c10.103,-21.04 35.386,-29.92 56.425,-19.817l76.242,36.607c21.039,10.102 29.919,35.385 19.817,56.425l-96.918,201.848c-10.102,21.04 -35.386,29.92 -56.425,19.817l-76.242,-36.607c-21.039,-10.102 -29.919,-35.385 -19.817,-56.425l96.918,-201.848Z" style="fill:#9edff1;"/><path d="M1537.08,607.911c-19.361,-9.28 -58.547,32.149 -87.453,92.457c-28.906,60.309 -36.656,116.805 -17.295,126.085c19.36,9.28 58.547,-32.149 87.453,-92.458c28.906,-60.308 36.656,-116.805 17.295,-126.084Z" style="fill:#9edff1;"/><path d="M1427.01,561.009c-19.361,-9.28 -58.547,32.149 -87.453,92.458c-28.906,60.308 -36.656,116.805 -17.295,126.084c19.36,9.28 58.547,-32.149 87.453,-92.457c28.906,-60.309 36.656,-116.805 17.295,-126.085Z" style="fill:#9edff1;"/></g></g><g id="Kopf1" serif:id="Kopf"><path d="M1458.1,549.003c2.2,-6.883 9.575,-10.685 16.458,-8.484l9.7,3.101c6.883,2.201 10.684,9.575 8.484,16.458l-8.387,26.231c-2.2,6.883 -9.575,10.684 -16.458,8.484l-9.7,-3.102c-6.883,-2.2 -10.684,-9.575 -8.484,-16.458l8.387,-26.23Z" style="fill:#ffb988;"/><path d="M1525.08,427.421c-30.869,-13.904 -70.038,6.129 -87.415,44.708c-17.377,38.579 -6.424,81.189 24.445,95.093c30.869,13.904 70.038,-6.129 87.415,-44.708c17.377,-38.579 6.424,-81.188 -24.445,-95.093Z" style="fill:#ffb988;"/></g><g id="Cap"><path d="M1442.53,444.059c7.125,-27.138 38.585,-42.395 70.266,-34.077c31.682,8.319 51.588,37.062 44.463,64.2l-114.729,-30.123Z"/><path d="M1404.43,428.286c0.224,-0.773 1.034,-1.218 1.807,-0.994l44.807,12.996c0.773,0.224 1.219,1.034 0.995,1.807l-0.813,2.801c-0.224,0.772 -1.034,1.218 -1.807,0.994l-44.807,-12.996c-0.773,-0.224 -1.218,-1.034 -0.994,-1.807l0.812,-2.801Z"/></g><path d="M1517.7,684.365c-0,-0 -24.228,71.236 -48.382,95.291" style="fill:none;stroke:#cceef8;stroke-width:7.72px;"/><path d="M1273.97,644.06c-7.894,-1.589 -13.013,-9.288 -11.424,-17.181l5.758,-28.604c1.589,-7.894 9.288,-13.012 17.181,-11.423l187.698,37.783c7.894,1.589 13.012,9.287 11.423,17.181l-5.757,28.604c-1.589,7.893 -9.288,13.012 -17.182,11.423l-187.697,-37.783Z" style="fill:#ffb988;"/><clipPath id="_clip3"><path d="M1273.97,644.06c-7.894,-1.589 -13.013,-9.288 -11.424,-17.181l5.758,-28.604c1.589,-7.894 9.288,-13.012 17.181,-11.423l187.698,37.783c7.894,1.589 13.012,9.287 11.423,17.181l-5.757,28.604c-1.589,7.893 -9.288,13.012 -17.182,11.423l-187.697,-37.783Z"/></clipPath><g clip-path="url(#_clip3)"><path d="M1426.95,962.493c-7.837,12.676 -25.284,18.628 -38.936,13.282l-49.473,-19.373c-13.652,-5.347 -18.374,-19.979 -10.537,-32.656l79.828,-129.125c7.837,-12.677 25.284,-18.628 38.936,-13.282l49.473,19.373c13.652,5.346 18.374,19.979 10.536,32.656l-79.827,129.125Z" style="fill:#ffb988;"/></g></g></g></svg>