<?xml version="1.0" encoding="UTF-8"?>
<!DOCTYPE svg  PUBLIC '-//W3C//DTD SVG 1.1//EN'  'http://www.w3.org/Graphics/SVG/1.1/DTD/svg11.dtd'>
<svg clip-rule="evenodd" fill-rule="evenodd" stroke-linecap="round" stroke-linejoin="round" stroke-miterlimit="1.5" version="1.1" viewBox="0 0 1920 1080" xml:space="preserve" xmlns="http://www.w3.org/2000/svg" xmlns:serif="http://www.serif.com/"><path d="m1060.3 231.54c-7.068 22.701-36.847 67.371-75.176 121.34l88.985 32.285-28.119 13.538-126.54-19.266 54.676-124.45 86.169-23.448z" fill="#e6c5bc"/><path d="m1196.9 67.871c50.015-13.25 97.777 3.005 106.59 36.277 8.815 33.271-24.635 71.041-74.649 84.291-50.015 13.25-97.776-3.005-106.59-36.276-8.814-33.272 24.635-71.042 74.649-84.292z" fill="#e6c5bc"/><path d="m1122.1 135.04-22.006 17.169-11.331 5.333 6.998 27.327 44.324-15.996-17.985-33.833z" fill="#e6c5bc"/><path d="m899.9 304 47.514 138.1-143.2 257.92-56.954-4.882 118.79-244.9-22.673-73.217 56.522-73.019z" fill="#dbaa9d" serif:id="Bein Hinten"/><path d="m753.68 686.9s-89.319 41.252-16.682 70.076c32.805 13.018 123.93-13.018 123.93-13.018l25.515-16.142s5.728-19.267-23.432-18.746c-29.161 0.521-65.611-15.622-65.611-15.622l-43.721-6.548z"/><path d="m1024.4 401.19s44.098-23.042 65.949-21.453c21.85 1.589 65.153 30.987 65.153 30.987l-12.713 11.124-51.646-27.015-60.386 22.248-6.357-15.891z"/><path d="m1040.6 386.65c-0.521-2.039-2.6-3.271-4.64-2.75l-7.39 1.89c-2.039 0.521-3.271 2.6-2.75 4.64l15.226 59.538c0.521 2.04 2.6 3.272 4.64 2.75l7.39-1.889c2.039-0.522 3.271-2.601 2.75-4.64l-15.226-59.539z" fill="#fff"/><path d="m637.57 399.56c-0.521-2.04-2.6-3.272-4.64-2.75l-7.39 1.889c-2.039 0.522-3.271 2.601-2.75 4.64l22.415 87.649c0.521 2.04 2.6 3.272 4.639 2.75l7.39-1.889c2.04-0.522 3.272-2.601 2.75-4.64l-22.414-87.649z" fill="#fff"/><path d="m564.57 344.46c4.311-0.778 11.186 7.559 20.596 8.473 13.087 1.27 31.186 4.412 48.072 6.606 36.754 4.776 72.63 9.929 72.903 15.839 0.488 10.577-114.57 34.444-138.64 32.545-35.884-2.83-39.594-56.84-2.929-63.463z"/><g fill="#f0492c"><path d="m659.88 472.02-21.491 6.716 118.03 377.72 21.491-6.716-118.03-377.72z"/><path d="m680.76 561.3-15.851-15.992-225.98 224 15.851 15.991 225.98-224z"/><path d="m1063.2 474.21-5-21.953-396.95 90.405 5 21.954 396.95-90.406z"/><path d="m1064.2 474.97-16.107-15.733-294.37 301.36 16.107 15.733 294.37-301.36z"/><path d="m1137 738.11 24.283-2.751-105.96-306.7-24.283 2.752 105.96 306.7z"/></g><path d="m472.96 734.15c47.82-1.753 233.55 3.432 277.78 19.069 89.732 31.725 66.107 112.26-24.155 102.97-47.601-4.899-212.18-40.52-258.07-50.216-62.402-13.182-52.933-69.724 4.45-71.827zm0.166 4.548c47.529-1.742 232.14 3.271 276.09 18.813 41.756 14.762 58.091 40.08 52.533 61.429-5.574 21.41-32.582 37.061-74.704 32.725-47.514-4.89-211.78-40.463-257.6-50.141-28.012-5.918-40.672-20.718-39.11-35.125 1.56-14.388 17.059-26.758 42.785-27.701z" fill="#8c8c8c"/><g fill="none" stroke="#666" stroke-width="4.55px"><path d="m472.76 571.1-16.527 387.74"/><path d="m494.38 958.21-57.208-390.29"/><path d="m536.33 951.22-139.21-373.12"/><path d="m575.74 931.52-220.57-336.89"/><path d="m606.88 902.91-280.32-278.41"/><path d="m303.24 659.46 326.72 211.67"/><path d="m645.85 836.8-361.05-141.11"/><path d="m659.84 794.22-387.11-61.658"/><path d="m667.46 751.63-397.28 24.154"/><path d="m656.66 709.04-380.12 108.7"/><path d="m291.16 857.14 345.16-186.88"/><path d="m615.34 641.03-298.12 249.17"/><path d="m347.74 918.17 235.19-310.2"/><path d="m546.06 588.9-163.36 356.6"/><path d="m420.83 955.03 88.354-384.56"/></g><path d="m464.69 552.32c117.58 0 213.04 95.462 213.04 213.04-0 117.58-95.462 213.04-213.04 213.04-117.58-0-213.04-95.461-213.04-213.04-0-117.58 95.461-213.04 213.04-213.04zm-0 16c108.75 0 197.04 88.292 197.04 197.04s-88.292 197.04-197.04 197.04-197.04-88.292-197.04-197.04 88.292-197.04 197.04-197.04z"/><circle cx="464.69" cy="765.36" r="49.657" fill="#8c8c8c"/><g serif:id="Rag"><g fill="none" stroke="#666" stroke-width="4.55px" serif:id="Speichen"><path d="m1153.1 571.1-16.527 387.74"/><path d="m1174.7 958.21-57.208-390.29"/><path d="m1216.7 951.22-139.21-373.12"/><path d="m1256.1 931.52-220.57-336.89"/><path d="m1287.2 902.91-280.32-278.41"/><path d="m983.58 659.46 326.72 211.67"/><path d="m1326.2 836.8-361.05-141.11"/><path d="m1340.2 794.22-387.11-61.658"/><path d="m1347.8 751.63-397.28 24.154"/><path d="m1337 709.04-380.12 108.7"/><path d="m971.5 857.14 345.16-186.88"/><path d="m1295.7 641.03-298.12 249.17"/><path d="m1028.1 918.17 235.19-310.2"/><path d="m1226.4 588.9-163.36 356.6"/><path d="m1101.2 955.03 88.354-384.56"/></g><path d="m1145 552.32c117.58 0 213.04 95.462 213.04 213.04 0 117.58-95.461 213.04-213.04 213.04-117.58-0-213.04-95.461-213.04-213.04-0-117.58 95.461-213.04 213.04-213.04zm0 16c108.75 0 197.04 88.292 197.04 197.04s-88.292 197.04-197.04 197.04c-108.75-0-197.04-88.292-197.04-197.04s88.292-197.04 197.04-197.04z"/><circle cx="1145" cy="765.36" r="49.657" fill="#8c8c8c"/></g><circle cx="750.52" cy="807.65" r="58.599" fill="#f2f2f2"/><circle cx="750.52" cy="807.65" r="36.748" fill="#999"/><path d="m760.71 812.03-16.918 3.564 18.866 89.567 16.918-3.564-18.866-89.567z"/><path d="m741.4 908.12 3.662 16.897 58.587-12.696-3.662-16.897-58.587 12.696z" fill="#262626"/><path d="m1089.5 149.7s-43.741-66.529-147.73-68.583c-50.698-1.001-114.96 20.139-196.91 58.651-18.497 8.692 43.731 71.939 43.731 71.939s11.654-2.029 27.162 0.303c19.404 2.918 44.959 10.895 62.623 17.961 31.782 12.713 154.4 75.874 224.06-34.96 11.346-18.053-12.942-45.311-12.942-45.311" fill="#88d9c8"/><path d="m757.75 440.11 32.057 86.286-43.936 300.23 43.122 6.509 58.581-290.46 0.814-136.69-90.638 34.13z" fill="#e6c5bc"/><path d="m745.87 826.63s-89.318 41.252-16.682 70.075c32.805 13.018 123.93-13.018 123.93-13.018l25.515-16.142s5.728-19.267-23.432-18.746-65.611-15.621-65.611-15.621l-43.721-6.548z" serif:id="Fuß vorne"/><path d="m743.69 141.74 44.782 67.693 32.805 31.244 81.232 62.486-58.32 75.504 3.124 27.078-89.564 34.367c0.853-0.568-20.471-42.204-47.016-90.093-26.096-47.079-57.484-100.04-49.626-144.1 5.545-31.086 39.338-54.947 82.583-64.178z"/></svg>
