<?xml version="1.0" encoding="UTF-8"?>
<!DOCTYPE svg  PUBLIC '-//W3C//DTD SVG 1.1//EN'  'http://www.w3.org/Graphics/SVG/1.1/DTD/svg11.dtd'>
<svg clip-rule="evenodd" fill-rule="evenodd" stroke-linecap="round" stroke-linejoin="round" stroke-miterlimit="1.5" version="1.1" viewBox="0 0 1920 1080" xml:space="preserve" xmlns="http://www.w3.org/2000/svg" xmlns:serif="http://www.serif.com/"><g serif:id="BEtt 2"><path d="m1312.6 57.456c0-12.178-9.887-22.065-22.065-22.065h-691.39c-12.178-0-22.066 9.887-22.066 22.065v878.79c0 12.179 9.888 22.066 22.066 22.066h691.39c12.178-0 22.065-9.887 22.065-22.066v-878.79z" fill="#e6e6e6"/><path d="m759.45 237.17c-4.367-22.649 8.677-205.37-0-209.8-25.949-13.273 70.702 17.209 165.38 14.105 85.363-2.797 168.83-41.507 164.53-13.325-1.841 12.055-20.427 192.81-7.02 226.96 9.618 24.502-58.038-21.74-119.89-32.311-91.019-15.556-192.6 31.791-203.01 14.372z" fill="#8c8c8c"/><path d="m1355 821.16c-14.255-73.051-4.167-284.02-38.159-303.54-33.993-19.522-124.57 140.01-165.8 186.41-27.22 30.627-56.362 64.024-81.583 91.943-22.966 25.424-45.177 60.246-69.739 75.57-22.2 13.85-54.411 4.16-77.635 16.373-27.063 14.233-57.108 55.166-84.74 69.021-24.327 12.197-70.836 6.213-81.056 14.106s7.508 28.203 19.737 33.251c30.616 12.637 107.63 37.016 163.95 42.571 65.135 6.423 163.6-5.878 226.85-4.03 51.127 1.493 113.38 29.598 152.64 15.114s76.977-62.555 82.899-102.02c5.921-39.464-38.279-88.175-47.371-134.77z" fill="#666"/><path d="m837.36 956.94c9.706 4.16-9.721 35.136-23.312 37.172-13.592 2.035-62.121-18.763-58.236-24.958 3.885-6.196 71.842-16.374 81.548-12.214z" fill="#585858"/><path d="m1309.2 507.98c29.112-9.478 16.772 123.99-16.249 170.61-34.528 48.747-139.81 88.691-190.92 121.87-38.905 25.25-118.48 88.014-115.77 77.182 2.708-10.833 89.471-93.472 132.02-142.18 53.824-61.61 161.81-218 190.92-227.48z" fill="#949494"/></g><g serif:id="^Schokolade"><path d="m1193.4 230.32-53.034 52.755 62.236 62.564 53.033-52.755-62.235-62.564z" fill="#f00"/><path d="m1147.4 216.41c-0.281 1.506-0.236 2.98 0.198 4.251 1.246 3.641 5.222 4.241 8.874 1.339-2.54 4.334-2.244 9.234 0.661 10.937 2.904 1.702 7.324-0.435 9.864-4.769-0.747 4.605 1.719 7.78 5.505 7.087 3.785-0.692 7.465-4.993 8.212-9.597 1.246 3.641 5.222 4.241 8.873 1.338 0.091-0.071 0.18-0.144 0.268-0.219l4.398 4.422-53.033 52.755-30.698-30.86 36.878-36.684z" fill="#6b2812"/><clipPath id="i"><path d="m1147.4 216.41c-0.281 1.506-0.236 2.98 0.198 4.251 1.246 3.641 5.222 4.241 8.874 1.339-2.54 4.334-2.244 9.234 0.661 10.937 2.904 1.702 7.324-0.435 9.864-4.769-0.747 4.605 1.719 7.78 5.505 7.087 3.785-0.692 7.465-4.993 8.212-9.597 1.246 3.641 5.222 4.241 8.873 1.338 0.091-0.071 0.18-0.144 0.268-0.219l4.398 4.422-53.033 52.755-30.698-30.86 36.878-36.684z"/></clipPath><g clip-path="url(#i)" fill="none" stroke="#541f0e" stroke-width="3.5px"><path d="m1121 261.95 52.018-51.746"/><path d="m1131.6 272.53 52.018-51.746"/><path d="m1131.6 272.53 52.018-51.746"/><path d="m1111 252.62 30.697 30.86"/><path d="m1124 239.68 30.698 30.859"/><path d="m1137 226.75 30.697 30.859"/><path d="m1150 213.81 30.697 30.859"/><path d="m1163 200.88 30.697 30.859"/></g><path d="m1156.4 282.12 43.007 43.233" fill="none" stroke="#dc0000" stroke-width="3.5px"/></g><g serif:id="^Schokolade"><path d="m1136.9 53.593-53.033 52.755 89.922 90.396 53.033-52.755-89.922-90.396z" fill="#f00"/><path d="m1106.8 112.32 63.799 64.135" fill="none" stroke="#dc0000" stroke-width="3.5px"/></g><g serif:id="^Schokolade"><path d="m1202.3 41.152-67.232 32.793 55.896 114.6 67.233-32.793-55.897-114.6z" fill="#f00"/><path d="m1154.8 87.005 39.659 81.307" fill="none" stroke="#dc0000" stroke-width="3.5px"/></g><path d="m1150.4 66.471-15.323 7.474 56.05 113.62" fill="none" stroke="#dc0000" stroke-width="1.03px"/><g serif:id="Chip 1"><path d="m684.12 535.37c7.379 12.889 4.145 20.647-10.148 23.061" fill="#f8b227"/><path d="m674.62 530.4c-0.268 4.419-3.127 20.209-9.007 24.374-1.152 0.816 0.445 3.528 1.826 3.821 14.618 3.101 22.548-16.976 14.928-26.057-1.722-2.052-7.679-3.254-7.747-2.138z" fill="#f5ce29"/></g><g serif:id="Chip 1"><path d="m716.2 549.78c7.38 12.889 4.145 20.648-10.148 23.061" fill="#f8b227"/><path d="m706.71 544.81c-0.268 4.419-3.128 20.209-9.008 24.375-1.151 0.816 0.445 3.527 1.826 3.82 14.618 3.101 22.548-16.976 14.929-26.057-1.722-2.052-7.68-3.254-7.747-2.138z" fill="#f5ce29"/></g><g serif:id="Chip 2"><path d="m697.03 598.59c-2.304 0.47-13.307 5.883-15.713 8.658-1.948 2.245-0.828 7.174 1.048 8.854 6.787 6.081 17.665 2.681 13.963-7.152-0.549-1.459-1.266-2.965-1.189-4.521 0.079-1.582 3.605-6.188 1.891-5.839z" fill="#f5ce29"/><path d="m696.8 599.46c-2.536 1.598-15.485 7.795-15.485 7.795s2.878-15.738 5.394-17.158c2.014-1.137 4.157-2.734 6.256-2.791 7.761-0.209 11.594 7.265 3.835 12.154z" fill="#f8b227"/></g><g serif:id="Chip 2"><path d="m725.39 525.26c1.692-1.632 8.075-12.102 8.618-15.735 0.439-2.94-3.151-6.499-5.635-6.911-8.989-1.491-16.346 7.213-7.947 13.527 1.245 0.936 2.658 1.822 3.427 3.177 0.783 1.378 0.278 7.156 1.537 5.942z" fill="#f5ce29"/><path d="m725.12 524.41c1.283-2.709 8.889-14.885 8.889-14.885s6.012 14.826 4.65 17.374c-1.09 2.04-2.041 4.538-3.783 5.711-6.438 4.34-13.682 0.088-9.756-8.2z" fill="#f8b227"/></g><g serif:id="Chip 3"><path d="m655.41 586.8c-0.032 8.954 4.537 13.23 13.222 13.321" fill="#f8b227"/><path d="m668.63 600.12c-5.806-0.083-18.379-15.541-12.053-19.82 3.346-2.263 11.226-5.841 13.877-7.984 2.007-1.623 5.801 0.948 7.048 3.208 1.341 2.433 2.153 8.354 1.002 11.386s-6.263 4.605-7.909 6.807c-1.337 1.788 0.267 6.434-1.965 6.403z" fill="#f5ce29"/></g><g serif:id="Chip 3"><path d="m725.74 570.14c-0.033 8.954 4.536 13.23 13.221 13.32" fill="#f8b227"/><path d="m738.96 583.46c-5.805-0.082-18.378-15.541-12.053-19.819 3.346-2.263 11.226-5.841 13.877-7.984 2.007-1.623 5.801 0.948 7.048 3.208 1.342 2.432 2.153 8.354 1.002 11.386s-6.263 4.605-7.908 6.806c-1.337 1.788 0.267 6.435-1.966 6.403z" fill="#f5ce29"/></g><path d="m755.03 498.59s-22.968-15.888-24.5-28.261c-4.526-36.533-65.958-135.33-71.779-130.22l-9.68-15.99-131.37 81.875 14.49 20.139c3.928 7.165 17.503 44.15 30.403 63.897 15.592 23.869 53.698 63.4 63.154 79.319l1.88 9.427s40.144-38.295 61.378-51.66c20.892-13.149 66.027-28.529 66.027-28.529z" fill="#f6cf2a"/><clipPath id="h"><path d="m755.03 498.59s-22.968-15.888-24.5-28.261c-4.526-36.533-65.958-135.33-71.779-130.22l-9.68-15.99-131.37 81.875 14.49 20.139c3.928 7.165 17.503 44.15 30.403 63.897 15.592 23.869 53.698 63.4 63.154 79.319l1.88 9.427s40.144-38.295 61.378-51.66c20.892-13.149 66.027-28.529 66.027-28.529z"/></clipPath><g clip-path="url(#h)" fill="none" stroke="#fae690" stroke-width="3.5px"><path d="m704.98 449.35s7.122 21.649-14.308 50.754"/><path d="m585.54 404.34s-28.99 19.755-28.833 46.869"/></g><path d="m626.05 497.13c-21.692-7.221-32.12-34.663-23.272-61.243s33.643-42.296 55.335-35.075 32.12 34.663 23.272 61.242c-8.848 26.58-33.643 42.297-55.335 35.076z" fill="#f2f2f2"/><clipPath id="g"><path d="m626.05 497.13c-21.692-7.221-32.12-34.663-23.272-61.243s33.643-42.296 55.335-35.075 32.12 34.663 23.272 61.242c-8.848 26.58-33.643 42.297-55.335 35.076z"/></clipPath><g clip-path="url(#g)"><g serif:id="Chip 1"><path d="m637.14 478.4c-7.326 12.919-15.65 14.092-25.012 3.026" fill="#f8b227"/><path d="m636.57 467.7c-3.938 2.022-18.98 7.612-25.561 4.677-1.289-0.575-2.808 2.181-2.356 3.519 4.784 14.156 26.099 10.743 30.027-0.441 0.887-2.528-1.115-8.266-2.11-7.755z" fill="#f5ce29"/></g><g serif:id="Chip 2"><path d="m636.3 439.35c1.692-1.632 8.075-12.103 8.618-15.735 0.439-2.94-3.15-6.499-5.634-6.911-8.99-1.491-16.347 7.213-7.948 13.527 1.245 0.936 2.659 1.822 3.428 3.177 0.782 1.378 0.277 7.156 1.536 5.942z" fill="#f5ce29"/><path d="m636.03 438.5c1.284-2.709 8.889-14.885 8.889-14.885s6.012 14.826 4.65 17.374c-1.09 2.04-2.041 4.537-3.783 5.711-6.438 4.34-13.681 0.088-9.756-8.2z" fill="#f8b227"/></g><g serif:id="Chip 2"><path d="m617.05 452.84c0.987 2.134 8.786 11.597 12.04 13.301 2.633 1.378 7.172-0.846 8.376-3.058 4.356-8.004-1.455-17.808-10.174-11.943-1.292 0.87-2.593 1.915-4.125 2.197-1.559 0.287-6.852-2.084-6.117-0.497z" fill="#f5ce29"/><path d="m617.94 452.86c2.139 2.1 11.149 13.277 11.149 13.277s-15.978 0.82-17.939-1.302c-1.569-1.698-3.617-3.416-4.155-5.447-1.989-7.504 4.402-12.954 10.945-6.528z" fill="#f8b227"/></g><g serif:id="Chip 3"><path d="m647.68 453.18c-0.032 8.954 4.537 13.23 13.222 13.32" fill="#f8b227"/><path d="m660.9 466.5c-5.806-0.082-18.379-15.541-12.053-19.819 3.345-2.264 11.226-5.841 13.876-7.984 2.008-1.623 5.802 0.948 7.048 3.208 1.342 2.432 2.154 8.354 1.003 11.386s-6.263 4.605-7.909 6.806c-1.337 1.788 0.267 6.435-1.965 6.403z" fill="#f5ce29"/></g></g><path d="m658.75 340.11-126.56 86.024-15.107-20.112 131.96-81.977 9.714 16.065z" fill="#dc0000"/><path d="m755.17 499.01c-47.368 17.679-90.346 44.528-128 80.283l-5.53-15.785 121.56-76.153 11.968 11.655z" fill="#dc0000"/><g serif:id="Chipspackung"><path d="m792.94 739.87s-15.9 22.959-28.274 24.485c-36.536 4.505-135.37 65.884-130.26 71.707l-15.996 9.672 81.803 131.42 20.147-14.48c7.167-3.924 44.159-17.478 63.913-30.367 23.878-15.58 63.43-53.664 79.354-63.111l9.429-1.876s-38.274-40.165-51.627-61.406c-13.138-20.899-28.493-66.042-28.493-66.042z" fill="#f6cf2a"/><clipPath id="f"><path d="m792.94 739.87s-15.9 22.959-28.274 24.485c-36.536 4.505-135.37 65.884-130.26 71.707l-15.996 9.672 81.803 131.42 20.147-14.48c7.167-3.924 44.159-17.478 63.913-30.367 23.878-15.58 63.43-53.664 79.354-63.111l9.429-1.876s-38.274-40.165-51.627-61.406c-13.138-20.899-28.493-66.042-28.493-66.042z"/></clipPath><g clip-path="url(#f)" fill="none" stroke="#fae690" stroke-width="3.5px"><path d="m743.67 789.89s21.653-7.11 50.747 14.335"/><path d="m698.59 909.3s19.74 29.001 46.854 28.859"/></g><path d="m791.41 868.84c-7.233 21.688-34.68 32.101-61.255 23.239-26.575-8.863-42.278-33.666-35.045-55.354 7.233-21.689 34.68-32.101 61.255-23.239 26.575 8.863 42.278 33.666 35.045 55.354z" fill="#f2f2f2"/><clipPath id="e"><path d="m791.41 868.84c-7.233 21.688-34.68 32.101-61.255 23.239-26.575-8.863-42.278-33.666-35.045-55.354 7.233-21.689 34.68-32.101 61.255-23.239 26.575 8.863 42.278 33.666 35.045 55.354z"/></clipPath><g clip-path="url(#e)"><g serif:id="Chip 1"><path d="m772.68 857.75c12.916 7.333 14.084 15.657 3.013 25.014" fill="#f8b227"/><path d="m761.98 858.32c2.02 3.94 7.602 18.984 4.663 25.564-0.575 1.289 2.18 2.809 3.517 2.358 14.16-4.777 10.758-26.094-0.424-30.027-2.527-0.889-8.266 1.11-7.756 2.105z" fill="#f5ce29"/></g><g serif:id="Chip 2"><path d="m733.63 858.57c-1.631-1.693-12.098-8.082-15.731-8.627-2.939-0.44-6.5 3.147-6.913 5.631-1.496 8.988 7.203 16.35 13.522 7.955 0.937-1.245 1.824-2.658 3.179-3.426 1.379-0.782 7.156-0.273 5.943-1.533z" fill="#f5ce29"/><path d="m732.78 858.84c-2.709-1.285-14.881-8.897-14.881-8.897s14.83-6.004 17.378-4.641c2.038 1.091 4.535 2.044 5.708 3.786 4.336 6.441 0.08 13.682-8.205 9.752z" fill="#f8b227"/></g><g serif:id="Chip 2"><path d="m747.11 877.82c2.134-0.986 11.602-8.78 13.307-12.033 1.379-2.632-0.842-7.173-3.053-8.377-8.002-4.36-17.809 1.445-11.949 10.167 0.869 1.293 1.913 2.594 2.195 4.126 0.286 1.559-2.088 6.851-0.5 6.117z" fill="#f5ce29"/><path d="m747.14 876.93c2.101-2.138 13.283-11.142 13.283-11.142s0.811 15.978-1.312 17.938c-1.699 1.569-3.418 3.616-5.449 4.153-7.505 1.985-12.952-4.41-6.522-10.949z" fill="#f8b227"/></g><g serif:id="Chip 3"><path d="m747.48 847.19c8.954 0.037 13.232-4.529 13.328-13.214" fill="#f8b227"/><path d="m760.8 833.98c-0.086 5.805-15.551 18.37-19.827 12.042-2.261-3.347-5.834-11.229-7.976-13.881-1.622-2.008 0.951-5.801 3.212-7.046 2.433-1.341 8.355-2.149 11.387-0.996 3.031 1.152 4.601 6.265 6.802 7.912 1.787 1.338 6.434-0.263 6.402 1.969z" fill="#f5ce29"/></g></g><path d="m634.41 836.06 85.954 126.61-20.121 15.097-81.904-132 16.071-9.706z" fill="#dc0000"/><path d="m793.36 739.73c26.618 42.103 53.91 84.821 80.213 128.04l-15.788 5.521-76.087-121.6 11.662-11.961z" fill="#dc0000"/></g><g serif:id="Chipspackung"><path d="m816.47 696.53s-15.9 22.959-28.274 24.485c-36.536 4.505-135.37 65.884-130.26 71.707l-15.996 9.672 81.803 131.42 20.147-14.48c7.168-3.924 44.16-17.478 63.913-30.367 23.878-15.58 63.43-53.664 79.354-63.111l9.429-1.876s-38.274-40.164-51.627-61.406c-13.138-20.898-28.493-66.042-28.493-66.042z" fill="#f6cf2a"/><clipPath id="d"><path d="m816.47 696.53s-15.9 22.959-28.274 24.485c-36.536 4.505-135.37 65.884-130.26 71.707l-15.996 9.672 81.803 131.42 20.147-14.48c7.168-3.924 44.16-17.478 63.913-30.367 23.878-15.58 63.43-53.664 79.354-63.111l9.429-1.876s-38.274-40.164-51.627-61.406c-13.138-20.898-28.493-66.042-28.493-66.042z"/></clipPath><g clip-path="url(#d)" fill="none" stroke="#fae690" stroke-width="3.5px"><path d="m767.2 746.55s21.652-7.11 50.746 14.335"/><path d="m722.12 865.96s19.74 29.001 46.854 28.859"/></g><path d="m814.94 825.5c-7.233 21.689-34.68 32.101-61.255 23.239-26.575-8.863-42.278-33.666-35.045-55.354 7.233-21.689 34.68-32.101 61.255-23.239 26.575 8.863 42.278 33.666 35.045 55.354z" fill="#f2f2f2"/><clipPath id="c"><path d="m814.94 825.5c-7.233 21.689-34.68 32.101-61.255 23.239-26.575-8.863-42.278-33.666-35.045-55.354 7.233-21.689 34.68-32.101 61.255-23.239 26.575 8.863 42.278 33.666 35.045 55.354z"/></clipPath><g clip-path="url(#c)"><g serif:id="Chip 1"><path d="m796.21 814.41c12.916 7.333 14.084 15.657 3.013 25.014" fill="#f8b227"/><path d="m785.51 814.97c2.02 3.94 7.602 18.984 4.663 25.564-0.575 1.289 2.18 2.809 3.518 2.358 14.159-4.777 10.757-26.094-0.425-30.027-2.527-0.889-8.266 1.11-7.756 2.105z" fill="#f5ce29"/></g><g serif:id="Chip 2"><path d="m757.16 815.22c-1.631-1.693-12.098-8.082-15.73-8.627-2.94-0.44-6.501 3.147-6.914 5.631-1.496 8.988 7.204 16.35 13.522 7.955 0.937-1.245 1.824-2.658 3.179-3.426 1.379-0.782 7.157-0.273 5.943-1.533z" fill="#f5ce29"/><path d="m756.31 815.49c-2.709-1.285-14.88-8.897-14.88-8.897s14.829-6.004 17.377-4.641c2.038 1.091 4.536 2.044 5.709 3.787 4.335 6.44 0.08 13.681-8.206 9.751z" fill="#f8b227"/></g><g serif:id="Chip 2"><path d="m770.64 834.48c2.135-0.987 11.602-8.781 13.307-12.034 1.38-2.632-0.842-7.173-3.053-8.377-8.001-4.36-17.809 1.445-11.948 10.167 0.868 1.293 1.913 2.594 2.194 4.127 0.287 1.558-2.088 6.85-0.5 6.117z" fill="#f5ce29"/><path d="m770.66 833.59c2.101-2.138 13.283-11.142 13.283-11.142s0.811 15.978-1.312 17.938c-1.699 1.569-3.418 3.616-5.448 4.153-7.506 1.985-12.952-4.41-6.523-10.949z" fill="#f8b227"/></g><g serif:id="Chip 3"><path d="m771.01 803.85c8.954 0.038 13.233-4.529 13.328-13.214" fill="#f8b227"/><path d="m784.33 790.63c-0.086 5.806-15.551 18.37-19.826 12.042-2.262-3.347-5.835-11.229-7.977-13.881-1.622-2.008 0.951-5.801 3.212-7.046 2.433-1.341 8.355-2.149 11.387-0.996 3.031 1.152 4.601 6.265 6.802 7.912 1.787 1.338 6.434-0.263 6.402 1.969z" fill="#f5ce29"/></g></g><path d="m657.94 792.72 85.954 126.61-20.12 15.097-81.904-132 16.07-9.706z" fill="#dc0000"/><path d="m816.89 696.39c26.618 42.104 53.91 84.821 80.213 128.04l-15.788 5.521-76.087-121.6 11.662-11.961z" fill="#dc0000"/></g><g serif:id="Chipspackung"><path d="m868.25 742.35s-24.135 14.05-35.989 10.186c-34.999-11.412-150.53 2.269-148.37 9.71l-18.588 1.976 18.361 153.71 24.386-4.571c8.155-0.515 47.405 2.895 70.76-0.402 28.231-3.985 80.2-21.704 98.627-23.509l9.334 2.3s-17.631-52.604-20.718-77.503c-3.036-24.498 2.199-71.893 2.199-71.893z" fill="#f6cf2a"/><clipPath id="b"><path d="m868.25 742.35s-24.135 14.05-35.989 10.186c-34.999-11.412-150.53 2.269-148.37 9.71l-18.588 1.976 18.361 153.71 24.386-4.571c8.155-0.515 47.405 2.895 70.76-0.402 28.231-3.985 80.2-21.704 98.627-23.509l9.334 2.3s-17.631-52.604-20.718-77.503c-3.036-24.498 2.199-71.893 2.199-71.893z"/></clipPath><g clip-path="url(#b)" fill="none" stroke="#fae690" stroke-width="3.5px"><path d="m802.42 766.76s22.624 2.743 39.88 34.501"/><path d="m710.97 855.8s5.58 34.634 30.196 46.003"/></g><path d="m812.18 858.51c-15.747 16.575-45.02 14.367-65.33-4.928-20.309-19.294-24.014-48.416-8.267-64.991s45.02-14.367 65.329 4.928c20.31 19.295 24.015 48.416 8.268 64.991z" fill="#f2f2f2"/><clipPath id="a"><path d="m812.18 858.51c-15.747 16.575-45.02 14.367-65.33-4.928-20.309-19.294-24.014-48.416-8.267-64.991s45.02-14.367 65.329 4.928c20.31 19.295 24.015 48.416 8.268 64.991z"/></clipPath><g clip-path="url(#a)"><g serif:id="Chip 1"><path d="m799.92 840.52c8.587 12.118 6.116 20.152-7.878 23.932" fill="#f8b227"/><path d="m790 836.5c0.159 4.425-1.165 20.416-6.616 25.129-1.068 0.924 0.783 3.469 2.185 3.627 14.849 1.678 20.807-19.07 12.348-27.374-1.912-1.876-7.957-2.499-7.917-1.382z" fill="#f5ce29"/></g><g serif:id="Chip 2"><path d="m764.22 824.7c-0.759-2.225-7.529-12.45-10.588-14.483-2.475-1.645-7.221 0.093-8.649 2.168-5.166 7.506-0.409 17.862 8.873 12.938 1.376-0.73 2.779-1.634 4.332-1.755 1.58-0.123 6.597 2.787 6.032 1.132z" fill="#f5ce29"/><path d="m763.33 824.59c-1.908-2.312-9.704-14.367-9.704-14.367s15.976 0.85 17.705 3.165c1.384 1.853 3.242 3.774 3.565 5.85 1.196 7.671-5.729 12.425-11.566 5.352z" fill="#f8b227"/></g><g serif:id="Chip 2"><path d="m768.26 847.86c2.351 0.012 14.23-3.032 17.154-5.255 2.366-1.8 2.279-6.853 0.787-8.882-5.397-7.342-16.741-6.242-15.132 4.141 0.239 1.54 0.633 3.161 0.238 4.668-0.402 1.533-4.796 5.319-3.047 5.328z" fill="#f5ce29"/><path d="m768.66 847.06c2.81-1.045 16.754-4.458 16.754-4.458s-6.04 14.814-8.794 15.689c-2.204 0.7-4.629 1.825-6.695 1.45-7.64-1.385-9.861-9.485-1.265-12.681z" fill="#f8b227"/></g><g serif:id="Chip 3"><path d="m781.58 820.27c8.094 3.83 13.905 1.509 17.673-6.316" fill="#f8b227"/><path d="m799.25 813.96c-2.539 5.221-21.873 10.042-23.061 2.499-0.629-3.99-0.523-12.644-1.338-15.954-0.618-2.506 3.321-4.85 5.896-5.019 2.772-0.183 8.478 1.596 10.735 3.926 2.257 2.329 1.511 7.625 2.805 10.05 1.052 1.969 5.939 2.49 4.963 4.498z" fill="#f5ce29"/></g></g><path d="m683.89 762.25 24.159 151.11-24.623 5.14-18.205-154.28 18.669-1.976z" fill="#dc0000"/><path d="m868.7 742.41c6.253 49.418 12.857 99.678 18.352 149.97l-16.639-1.694-17.347-142.39 15.634-5.888z" fill="#dc0000"/></g><rect x="974.51" y="504.69" width="158.91" height="219.35" fill="#fff"/><path d="m993.63 528.43h58.905" fill="none" stroke="#000" stroke-width="7.72px"/><path d="m994.21 574.51h96.814" fill="none" stroke="#000" stroke-width="3.14px"/><path d="m994.21 590.25h96.814" fill="none" stroke="#000" stroke-width="3.14px"/><path d="m993.05 624.08h96.814" fill="none" stroke="#000" stroke-width="3.14px"/><path d="m993.63 639.83h96.814" fill="none" stroke="#000" stroke-width="3.14px"/><path d="m994.21 655.57h96.814" fill="none" stroke="#000" stroke-width="3.14px"/><path d="m994.8 671.32h96.814" fill="none" stroke="#000" stroke-width="3.14px"/><path d="m995.38 687.07h96.814" fill="none" stroke="#000" stroke-width="3.14px"/><path d="m995.96 702.82h96.814" fill="none" stroke="#000" stroke-width="3.14px"/><path d="m994.21 607.75h96.814" fill="none" stroke="#000" stroke-width="3.14px"/><g fill="#dc0000"><path d="m1100.6 511.74c-10.006 2.073-20.574 6.672-24.291 14.615-2.45 5.234-1.391 10.856 1.95 15.688 4.869 7.042 14.63 12.381 25.005 12.15 18.048-0.403 26.897-10.921 27.131-21.897 0.234-10.949-8.139-22.543-24.87-25.224-0.518-0.083-1.006 0.27-1.089 0.787-0.083 0.518 0.27 1.006 0.788 1.089 15.557 2.493 23.489 13.127 23.272 23.308-0.217 10.154-8.578 19.665-25.275 20.037-9.702 0.216-18.845-4.745-23.399-11.331-2.941-4.253-3.95-9.194-1.793-13.802 3.497-7.47 13.546-11.61 22.956-13.559 0.514-0.107 0.844-0.61 0.738-1.123-0.106-0.514-0.61-0.844-1.123-0.738z"/><path d="m1104.1 535.56c2.105-0 4.845-0.841 7.714-1.701 2.679-0.803 5.48-1.621 7.944-1.621 0.525 0 0.95-0.425 0.95-0.95 0-0.524-0.425-0.95-0.95-0.95-2.632 0-5.629 0.843-8.489 1.701-2.67 0.8-5.211 1.621-7.169 1.621-0.524-0-0.95 0.425-0.95 0.95 0 0.524 0.426 0.95 0.95 0.95z"/><path d="m1087.3 534c4e-3 -0.09 0.017-0.273 0.048-0.406 0.119-0.508 0.387-1.135 0.744-1.831 1.27-2.473 3.656-5.72 5.41-7.665 0.662-0.734 1.201-1.281 1.539-1.449 0.469-0.235 0.659-0.806 0.425-1.275-0.235-0.469-0.806-0.659-1.275-0.425-0.45 0.225-1.218 0.899-2.099 1.876-1.847 2.048-4.354 5.467-5.69 8.071-0.647 1.261-1.012 2.367-1.009 3.095 2e-3 0.567 0.189 0.994 0.485 1.291 0.291 0.291 0.714 0.525 1.259 0.67 0.605 0.163 1.392 0.225 2.277 0.207 3.033-0.061 7.354-1.074 8.523-1.074 0.525 0 0.95-0.425 0.95-0.95 0-0.524-0.425-0.95-0.95-0.95-1.174 0-5.515 1.013-8.561 1.074-0.577 0.012-1.102-0.011-1.535-0.094-0.218-0.041-0.408-0.08-0.541-0.165z"/><path d="m1093.3 530.43c-1.581 3.638-3.163 7.276-4.745 10.913-0.209 0.481 0.012 1.041 0.493 1.25s1.041-0.011 1.25-0.492c1.581-3.638 3.163-7.276 4.745-10.913 0.209-0.481-0.012-1.041-0.493-1.25s-1.041 0.011-1.25 0.492z"/></g></svg>
